<svg width="67" height="21" viewBox="0 0 67 21" fill="none" xmlns="http://www.w3.org/2000/svg">
<path d="M39.3371 15.9144V18.9368C39.034 18.995 38.7232 19.0242 38.4114 19.0237C37.5684 19.0237 37.1257 18.6611 37.1257 17.8733V15.9144C37.0056 15.8956 36.8835 15.8861 36.761 15.8861C36.6308 15.8861 36.5008 15.8956 36.3727 15.9144V17.8885C36.3727 18.9595 37.0831 19.5017 38.3664 19.5017C38.9495 19.494 39.5289 19.4261 40.0901 19.2995V15.9144C39.9668 15.8956 39.8415 15.8861 39.716 15.8861C39.5889 15.8861 39.4621 15.8956 39.3371 15.9144ZM43.0545 15.8861C42.5712 15.8878 42.1212 16.0829 41.8564 16.4056C41.8469 16.2408 41.8232 16.0767 41.7854 15.9144C41.6817 15.8937 41.575 15.8842 41.4681 15.8861C41.3582 15.8861 41.2487 15.8956 41.1414 15.9144V19.4601C41.2607 19.479 41.382 19.4885 41.5036 19.4884C41.6339 19.4885 41.7639 19.479 41.892 19.4601V17.454C41.892 16.8117 42.401 16.3773 43.045 16.3773C43.1601 16.3728 43.2754 16.3798 43.3884 16.398C43.414 16.3133 43.4267 16.2264 43.4262 16.1392C43.4263 16.0637 43.4169 15.9884 43.3978 15.9144C43.2846 15.8974 43.1697 15.888 43.0545 15.8861ZM31.6301 17.7014C31.6301 18.7347 32.4115 19.3713 33.5243 19.3713C33.8939 19.3751 34.2605 19.3185 34.6017 19.2051V19.4733C34.6017 20.21 34.1281 20.5142 33.2781 20.5142C32.8207 20.5161 32.3686 20.4368 31.9545 20.2818C31.9375 20.3611 31.9288 20.4413 31.9285 20.5217C31.9285 20.604 31.9376 20.6861 31.9545 20.7673C32.3971 20.9242 32.8767 21.0034 33.361 20.9996C34.6206 20.9996 35.3546 20.4329 35.3546 19.4072V16.0599C34.8992 15.9278 34.4186 15.8594 33.934 15.8578C32.466 15.8578 31.6491 16.6398 31.6491 17.7033M34.6017 18.7423C34.3023 18.844 33.9799 18.8955 33.6546 18.8934C32.8945 18.8934 32.4044 18.4306 32.4044 17.7147C32.4044 16.8684 32.949 16.3414 33.8819 16.3414C34.1266 16.334 34.3713 16.3582 34.6064 16.4131L34.6017 18.7423ZM50.423 17.4691L49.9873 17.3104C49.5516 17.1517 49.3172 17.0497 49.3172 16.7815C49.3172 16.449 49.7245 16.3414 50.1767 16.3414C50.5385 16.3433 50.8972 16.3943 51.2375 16.4925C51.2564 16.4115 51.2659 16.3293 51.2659 16.2469C51.2659 16.1739 51.2565 16.1011 51.2375 16.0297C50.8697 15.909 50.4748 15.8499 50.0772 15.8559C49.2627 15.8559 48.5737 16.2242 48.5737 16.7683C48.5737 17.2311 48.8105 17.4974 49.6156 17.7732L49.9517 17.8885C50.4679 18.0774 50.6621 18.2209 50.6621 18.5043C50.6621 18.8821 50.2099 19.0181 49.7742 19.0181C49.3353 19.0177 48.9009 18.9485 48.4956 18.8141C48.4483 18.9711 48.4483 19.1349 48.4956 19.292C48.9281 19.4468 49.4001 19.5186 49.8736 19.5017C50.726 19.5017 51.415 19.1239 51.415 18.5099C51.415 18.0112 51.0977 17.7147 50.4182 17.4691M29.2032 15.8559C28.0193 15.8559 27.264 16.5945 27.264 17.6939C27.264 18.7933 28.043 19.5017 29.395 19.5017C29.8379 19.5054 30.2776 19.4413 30.6901 19.3128C30.7091 19.2369 30.7186 19.1597 30.7186 19.0823C30.7186 19.0043 30.7091 18.9265 30.6901 18.85C30.2912 18.9615 29.8721 19.0202 29.4494 19.0237C28.5426 19.0237 28.043 18.5609 27.998 17.8091H30.9269C30.9439 17.6792 30.9526 17.5487 30.953 17.4181C30.953 16.4566 30.2426 15.8559 29.2127 15.8559M28.0075 17.3671C28.0714 16.7154 28.5686 16.3244 29.1914 16.3244C29.8638 16.3244 30.2355 16.7588 30.2355 17.3671H28.0075ZM45.8934 15.8559C44.6883 15.8559 43.9353 16.5284 43.9353 17.6863C43.9353 18.8443 44.6788 19.5092 45.884 19.5092C47.0892 19.5092 47.8516 18.8216 47.8516 17.6863C47.8516 16.5227 47.1413 15.8559 45.8934 15.8559ZM45.8934 19.0237C45.1144 19.0237 44.7096 18.5477 44.7096 17.6863C44.7096 16.8249 45.1358 16.3414 45.9053 16.3414C46.6748 16.3414 47.1034 16.7966 47.1034 17.6863C47.1034 18.576 46.6843 19.0237 45.8958 19.0237M25.6019 17.471L25.1662 17.3123C24.7305 17.1536 24.4961 17.0516 24.4961 16.7834C24.4961 16.4509 24.9034 16.3432 25.358 16.3432C25.7198 16.3451 26.0785 16.3962 26.4187 16.4944C26.4357 16.4132 26.4444 16.3311 26.4448 16.2488C26.4448 16.1759 26.4357 16.1032 26.4187 16.0316C26.0506 15.9118 25.656 15.8526 25.2585 15.8578C24.4417 15.8578 23.7526 16.2261 23.7526 16.7702C23.7526 17.233 23.9894 17.4993 24.7945 17.7751L25.1307 17.8903C25.6468 18.0792 25.841 18.2228 25.841 18.5062C25.841 18.884 25.3888 19.02 24.9531 19.02C24.5142 19.0196 24.0798 18.9503 23.6745 18.816C23.6485 18.8942 23.6365 18.9749 23.639 19.0559C23.639 19.136 23.6508 19.2159 23.6745 19.2939C24.107 19.4487 24.579 19.5205 25.0525 19.5035C25.9049 19.5035 26.5939 19.1257 26.5939 18.5118C26.5939 18.0131 26.2767 17.7166 25.5971 17.471" fill="#555555"/>
<path d="M40.0123 5.81511V7.06061C39.7083 7.00162 39.3959 6.97504 39.0831 6.98158C37.1189 6.98158 35.79 8.03358 35.79 9.70697C35.79 11.3804 37.0915 12.367 39.1241 12.367C40.0279 12.3746 40.9275 12.2669 41.7887 12.0481V4.67044C41.2565 4.81696 40.7572 5.03042 40.3095 5.30273C40.1047 5.42038 39.991 5.61428 40.0089 5.81511M40.0089 11.1405C39.7628 11.198 39.5069 11.2247 39.2505 11.2196C38.0754 11.2196 37.6176 10.6036 37.6176 9.71242C37.6176 8.71765 38.0754 8.11261 39.2369 8.11261C39.4975 8.11043 39.7574 8.13695 40.0089 8.19165V11.1405ZM32.0664 6.95977C31.42 6.94914 30.7746 7.00596 30.1466 7.12874C30.0407 7.49735 30.0407 7.88028 30.1466 8.24888C30.6776 8.14552 31.2228 8.09607 31.7693 8.10171C32.6848 8.10171 33.1357 8.39878 33.1357 9.00382V9.06105C32.8624 9.03652 32.5344 9.01472 32.3056 9.01472C30.7888 9.01472 29.4839 9.44806 29.4839 10.6145C29.4839 11.9282 30.659 12.3724 32.3636 12.3724C33.2048 12.367 34.0404 12.2633 34.8438 12.0644V9.10738C34.8438 7.69018 33.8838 6.99248 32.0664 6.95977ZM33.1357 11.2114C32.8853 11.2468 32.6316 11.2659 32.3773 11.2686C31.5609 11.2686 31.1168 11.0751 31.1168 10.6172C31.1168 10.1594 31.5609 9.97678 32.3773 9.97678C32.6506 9.97678 32.9649 10.0013 33.1357 10.0122V11.2114ZM9.07602 8.21345L7.78474 8.80486V12.3479H9.15117C9.27759 12.3495 9.38159 12.2689 9.38347 12.168V8.35245C9.38741 8.26564 9.30421 8.19203 9.19558 8.1862C9.14738 8.18541 9.10028 8.19789 9.06235 8.22163M6.36705 9.58433V12.2198C6.36705 12.286 6.43435 12.3397 6.51735 12.3397H7.40554V8.96293L6.52077 9.36902C6.42269 9.40774 6.36245 9.48893 6.36705 9.57615M7.31331 3.09789C6.35734 3.10061 5.40328 3.16613 4.46086 3.29412C5.4901 2.2438 7.07017 1.63212 8.74123 1.63708C9.98313 1.64228 11.1866 1.9812 12.1573 2.59914C12.3145 2.69998 12.4341 2.71088 12.5536 2.61549C12.6732 2.52011 12.6595 2.42744 12.5297 2.3048C9.55807 -0.508125 3.89186 0.261325 2.25405 3.7002C1.5377 3.8748 0.846168 4.10864 0.19072 4.3979C0.0233368 4.47149 -0.0381625 4.56688 0.023337 4.67044C0.0836535 4.77274 0.234698 4.81853 0.364942 4.77401C0.894434 4.65136 1.43418 4.5478 1.99784 4.45241C1.93359 4.69341 1.90153 4.93915 1.90219 5.18554C1.87417 6.83157 2.91755 8.37157 4.659 9.25455C4.82638 9.33904 4.97327 9.33904 5.06892 9.23548C5.16457 9.13191 5.15091 9.03652 5.00743 8.93295C3.93789 8.14534 3.33079 7.03629 3.33354 5.87506C3.32923 5.31285 3.47109 4.75604 3.75031 4.23983C4.31396 4.20167 4.92545 4.17442 5.59842 4.17442C9.96421 4.17988 13.6639 5.32726 13.6639 6.83441C13.6639 7.59751 12.4511 8.3579 11.013 8.86755C10.6714 8.99019 10.6303 9.07468 10.6714 9.19732C10.7123 9.31996 10.8729 9.34722 11.0539 9.30089C13.5716 8.64134 15.4949 7.55936 15.4949 6.25117C15.4949 4.47149 11.8977 3.09789 7.34063 3.09789M21.3672 6.98158C20.9085 6.97587 20.4538 7.05031 20.0349 7.19961V4.67044C19.5045 4.81992 19.0074 5.03614 18.5626 5.31091C18.3578 5.42855 18.244 5.62246 18.2619 5.82328V12.0917C19.017 12.2977 19.8109 12.3982 20.6088 12.3888C22.9284 12.3724 24.2538 11.2441 24.2538 9.60885C24.2538 7.97362 23.3075 6.98158 21.3604 6.98158M20.7113 11.2114C20.4813 11.2197 20.2509 11.2004 20.0281 11.1542V8.31702C20.35 8.20234 20.7006 8.14825 21.0529 8.15894C21.9411 8.15894 22.4193 8.64952 22.4193 9.57342C22.4193 10.5464 21.8591 11.2087 20.7113 11.2087M28.787 7.02791C28.0678 7.00223 27.3843 7.27949 26.9867 7.75831C26.9454 7.52948 26.878 7.30414 26.7851 7.08514C26.546 7.03891 26.2999 7.01965 26.0541 7.02791C25.8141 7.02518 25.5746 7.04439 25.3401 7.08514V12.2634C25.6329 12.3069 25.9306 12.3261 26.2283 12.3206C26.5247 12.3206 26.8206 12.3015 27.1131 12.2634V9.73422C27.1131 8.72855 27.7724 8.19165 28.6606 8.19165C28.8569 8.18893 29.0533 8.19713 29.2482 8.21618C29.3505 7.83974 29.3609 7.4511 29.2789 7.07151C29.1135 7.04475 28.9454 7.03015 28.7767 7.02791M63.1975 6.95977C61.2059 6.95977 60.0888 8.04993 60.0888 9.68516C60.0888 11.3204 61.2639 12.3806 63.1975 12.3806C65.2027 12.3806 66.3198 11.3204 66.3198 9.68516C66.3198 8.04993 65.2027 6.95977 63.1975 6.95977ZM63.1975 11.2305C62.2102 11.2305 61.9096 10.5927 61.9096 9.67699C61.9096 8.76126 62.2102 8.10171 63.1975 8.10171C64.1847 8.10171 64.5024 8.76398 64.5024 9.67699C64.5024 10.6363 64.1608 11.2305 63.1975 11.2305ZM52.6998 9.18642L51.9858 8.94658C51.569 8.81031 51.3265 8.69585 51.3265 8.47781C51.3265 8.14532 51.6988 8.07718 52.1873 8.07718C52.7564 8.07712 53.3217 8.15074 53.8612 8.29522C53.9467 7.94419 53.9467 7.58333 53.8612 7.23231C53.2481 7.03349 52.5891 6.9406 51.9277 6.95977C50.5613 6.95977 49.5091 7.55391 49.5091 8.44239C49.5091 9.24365 49.9361 9.64429 51.142 10.0313L51.6988 10.2139C52.2283 10.3856 52.3821 10.4864 52.3821 10.759C52.3821 11.1705 51.8662 11.2414 51.4392 11.2414C50.777 11.2355 50.1217 11.133 49.5057 10.9388C49.393 11.3031 49.393 11.6838 49.5057 12.0481C50.2075 12.2969 50.9729 12.4099 51.7398 12.3779C53.1063 12.3779 54.1892 11.8082 54.1892 10.7808C54.1892 9.9359 53.7314 9.53527 52.7134 9.19187M58.2441 11.2114C57.3559 11.2114 56.7683 10.6663 56.7683 9.66881C56.7683 8.73128 57.2398 8.12624 58.2578 8.12624C58.6465 8.12378 59.0316 8.18604 59.3885 8.30884C59.5192 7.94996 59.7323 7.61357 60.0171 7.3168C59.4041 7.06297 58.7189 6.94086 58.0289 6.9625C56.0646 6.9625 54.9339 8.06901 54.9339 9.66881C54.9339 11.3259 56.0954 12.3751 58.1006 12.3751C58.7753 12.3939 59.4449 12.2767 60.0478 12.0345C59.7468 11.7384 59.5154 11.4014 59.3646 11.0397C59.0103 11.1683 58.6226 11.2272 58.2339 11.2114M45.8675 6.9625C43.9477 6.9625 42.7725 7.98997 42.7725 9.70424C42.7725 11.4185 44.0194 12.3751 46.1545 12.3751C46.8437 12.3881 47.5288 12.287 48.1666 12.0781C48.2657 11.719 48.2657 11.347 48.1666 10.9879C47.5728 11.1382 46.9549 11.219 46.3321 11.2277C45.3449 11.2277 44.6582 10.9307 44.5148 10.0967H48.5765C48.6311 9.85944 48.6551 9.61835 48.6483 9.3772C48.6483 7.83462 47.5585 6.96795 45.8846 6.96795M44.5387 9.05832C44.6685 8.42876 45.1399 8.05265 45.8539 8.05265C46.6567 8.05265 46.9709 8.48599 47.0017 9.05832H44.5387Z" fill="#555555"/>
</svg>
