<svg width="29" height="39" viewBox="0 0 29 39" fill="none" xmlns="http://www.w3.org/2000/svg">
<path fill-rule="evenodd" clip-rule="evenodd" d="M7.70896 8.23601L7.70394 8.24045L7.69892 8.24489C6.09632 9.84617 3.81389 11.1976 1.09003 12.1496L0.822266 12.2417L1.03056 12.4172C2.70267 13.8168 3.62543 15.6859 3.62543 17.6733V25.5752C3.85856 28.6202 6.4188 31.3579 10.4777 32.9023C12.2043 33.5428 13.6729 34.4466 14.7249 35.5215L14.8637 35.662L15.0027 35.5215C16.0544 34.4466 17.5228 33.5428 19.2496 32.9023C23.3085 31.3579 25.8685 28.6202 26.0969 25.5752V17.6733C26.1019 15.6859 27.0199 13.8168 28.6965 12.4172L28.9001 12.2417L28.6373 12.1496C25.9132 11.1976 23.626 9.84617 22.0234 8.24489L22.0184 8.24045L22.0134 8.23601C20.0685 6.58191 17.5281 5.66055 14.8634 5.64746C12.1945 5.66055 9.6541 6.58191 7.70896 8.23601Z" fill="#555555"/>
<path fill-rule="evenodd" clip-rule="evenodd" d="M14.8642 5.96729C17.4342 5.98038 19.8856 6.87089 21.7607 8.46818C23.3537 10.0519 25.5912 11.3903 28.2506 12.3511C26.6282 13.7944 25.7353 15.6724 25.7353 17.6729V25.5573C25.5117 28.4793 23.036 31.1116 19.1066 32.6077C17.3993 33.2395 15.9408 34.1258 14.8642 35.1829C13.7874 34.1256 12.3238 33.2393 10.617 32.6077C6.69237 31.1116 4.21646 28.4793 3.98809 25.5573V17.6729C3.98809 15.6724 3.09996 13.7944 1.47754 12.3511C4.13214 11.3903 6.37492 10.0522 7.96245 8.46818C9.84286 6.87089 12.2939 5.98038 14.8642 5.96729ZM11.8176 7.85372V13.395H17.9058V7.84928C18.6847 8.12578 19.4193 8.50746 20.0986 8.97701C20.6843 9.3982 21.1657 9.89837 21.716 10.3502C22.9565 11.343 24.3395 12.1868 25.8294 12.86C24.9167 14.0798 24.4007 15.4574 24.2517 16.8962H21.8651V22.2797H24.207V25.4956C24.0928 26.5925 23.6561 27.5007 22.9419 28.3957C22.1233 29.3477 21.1607 30.0584 20.0143 30.6816C19.3294 31.0326 18.6155 31.3089 17.9058 31.6029V25.7763H11.8176V31.5983C11.6788 31.5412 11.5348 31.4842 11.391 31.4272L10.9099 31.2383C8.80591 30.352 6.9752 29.0885 5.99271 27.1754C5.7395 26.6182 5.5809 26.0918 5.52142 25.4951V22.2793H7.85831V16.8958H5.47675C5.32291 15.4523 4.80695 14.0791 3.89875 12.8595C5.8188 11.9952 7.62015 10.8282 9.06389 9.41107C9.88753 8.72692 10.8153 8.20478 11.8176 7.85372Z" fill="#C4C4C4"/>
<path fill-rule="evenodd" clip-rule="evenodd" d="M20.6035 38.9297V36.1305H21.2633V38.4164H22.8215V38.9297H20.6035ZM19.9882 36.1303V38.9294H19.3279V36.1303H19.9882ZM16.2866 38.0653H16.917C16.9464 38.1838 16.9715 38.2757 17.0259 38.346C17.1303 38.4645 17.3135 38.5349 17.5768 38.5349C17.7356 38.5349 17.8694 38.5087 17.9738 38.4865C18.157 38.4164 18.2365 38.3245 18.2365 38.1619C18.2365 38.0653 18.2119 37.9996 18.1075 37.9513C18.0282 37.8811 17.8694 37.8592 17.6859 37.8108L17.3383 37.7409C16.9958 37.6708 16.7875 37.6004 16.6535 37.5303C16.4452 37.3898 16.3408 37.2057 16.3408 36.9247C16.3408 36.4114 16.7629 36.0384 17.5514 36.0384C18.2117 36.0384 18.762 36.3675 18.7919 36.9731H18.1321C18.1321 36.7843 18.0528 36.6702 17.894 36.6001C17.7896 36.5517 17.6558 36.5299 17.4969 36.5299C17.1544 36.5299 16.9461 36.6702 16.9461 36.8766C16.9461 36.9733 16.9955 37.0654 17.105 37.1136C17.1544 37.1355 17.3132 37.1837 17.4969 37.2276L18.0528 37.3461C18.2905 37.3898 18.4744 37.4602 18.6082 37.5303C18.7919 37.6708 18.8963 37.8592 18.8963 38.1139C18.8963 38.627 18.42 39 17.6061 39C16.7878 38.9998 16.2866 38.6489 16.2866 38.0653ZM13.0269 38.9297L14.163 36.1305H14.9272L16.0339 38.9297H15.3192L15.1109 38.346H13.9497L13.7116 38.9297H13.0269ZM14.5302 36.7623L14.1332 37.8809H14.9272L14.5302 36.7623ZM11.6424 36.1303C12.0889 36.1303 12.2974 36.227 12.4563 36.3893C12.5903 36.5297 12.6944 36.7139 12.6944 36.9245C12.6944 37.1835 12.5358 37.4859 12.1933 37.6002C12.4861 37.6923 12.5903 37.859 12.5903 38.2539V38.4381C12.5903 38.5564 12.6151 38.6487 12.6151 38.6969C12.64 38.767 12.6696 38.8373 12.7491 38.8591V38.9292H12.0098C11.985 38.8591 11.985 38.8151 11.9554 38.7887C11.9554 38.6966 11.9305 38.6265 11.9305 38.5344V38.2755C11.9305 37.9289 11.8264 37.8325 11.4294 37.8325H10.7445V38.9292H10.0848V36.1301L11.6424 36.1303ZM11.5084 36.6218H10.7443V37.3676H11.4836C11.6424 37.3676 11.7466 37.3457 11.8259 37.3193C11.9549 37.2756 12.0344 37.1571 12.0344 36.9946C12.0344 36.8322 11.9551 36.7137 11.8259 36.6697C11.7714 36.6218 11.6424 36.6218 11.5084 36.6218ZM8.30825 37.6881H7.53908V38.4337H8.30825C8.45205 38.4337 8.56623 38.4337 8.64077 38.39C8.77954 38.3287 8.84906 38.2233 8.84906 38.0389C8.84906 37.8942 8.77954 37.7888 8.64077 37.7493C8.56623 37.7056 8.45205 37.6881 8.30825 37.6881ZM8.45205 36.1303C8.82396 36.1303 9.10704 36.2357 9.27066 36.4243C9.36477 36.5473 9.40969 36.6919 9.40969 36.8586C9.40969 37.0255 9.36502 37.1701 9.27066 37.2709C9.20115 37.3148 9.13189 37.3763 9.01268 37.4156C9.34018 37.521 9.5038 37.7711 9.5038 38.0782C9.5038 38.2448 9.45913 38.3895 9.36477 38.5344C9.3201 38.6179 9.24557 38.6791 9.15648 38.745C8.94292 38.8897 8.66034 38.9292 8.33284 38.9292H6.90391V36.1301L8.45205 36.1303ZM8.23874 36.6087H7.53908V37.2318H8.30825C8.59108 37.2318 8.77954 37.1486 8.77954 36.9205C8.77954 36.7756 8.73487 36.6924 8.61592 36.6482C8.49672 36.6305 8.38253 36.6087 8.23874 36.6087ZM9.72715 4.21624L10.3623 5.9449L8.70024 4.87886L7.03792 5.9449L7.67309 4.21624L6.01102 3.1502H8.06508L8.70024 1.42154L9.33516 3.1502H11.3895L9.72715 4.21624ZM19.9982 4.21624L19.3628 5.9449L21.0249 4.87886L22.6869 5.9449L22.0523 4.21624L23.7143 3.1502H21.6603L21.0249 1.42154L20.3902 3.1502H18.3361L19.9982 4.21624ZM24.9897 7.72615L24.3545 9.45481L26.0166 8.38433L27.6787 9.45481L27.0435 7.72615L28.7061 6.66011H26.6518L26.0166 4.93145L25.3814 6.66011H23.3271L24.9897 7.72615ZM4.73592 7.72615L5.37083 9.45481L3.70876 8.38433L2.04644 9.45481L2.6816 7.72615L1.01953 6.66011H3.07359L3.70876 4.93145L4.34392 6.66011H6.39799L4.73592 7.72615ZM15.8896 2.79492L16.525 4.52336L14.8627 3.45732L13.2004 4.52336L13.8355 2.79492L12.1735 1.72866H14.2275L14.8627 0L15.4976 1.72866H17.5519L15.8896 2.79492ZM13.245 7.47628V18.1554H5.51488L5.5199 21.016H13.2453V32.274C13.8109 32.5811 14.3517 32.9188 14.8627 33.3008C15.3689 32.9188 15.9147 32.5811 16.4803 32.274V21.016H24.2055V18.1551H16.4803V7.47184C15.8811 7.36422 15.2705 7.31423 14.6592 7.32272C14.1781 7.34469 13.7015 7.39284 13.245 7.47628Z" fill="white"/>
<path fill-rule="evenodd" clip-rule="evenodd" d="M21.6066 15.1723L19.1206 17.4493H17.2801V15.8216L19.8547 13.6236V13.2197H9.87196V13.6236L12.442 15.8216V17.4493H10.6063L8.12055 15.1723H7.66406V23.9995H8.12055L10.6063 21.7228H12.442V23.3505L9.87196 25.5485V25.9521H19.8547V25.5485L17.2801 23.3505V21.7228H19.1206L21.6066 23.9995H22.0628V15.1723H21.6066Z" fill="white"/>
<path fill-rule="evenodd" clip-rule="evenodd" d="M9.93652 19.5845C9.93652 19.0493 10.125 18.6281 10.4377 18.3254C10.7305 18.0709 11.0974 17.9307 11.5489 17.9307C12.1545 17.9307 12.6009 18.1148 12.8639 18.4659C13.0228 18.6547 13.1021 18.8389 13.1269 19.0495H12.3926C12.3382 18.8873 12.2586 18.7686 12.1793 18.6985C12.0453 18.558 11.8616 18.4879 11.5988 18.4879C11.048 18.4879 10.7007 18.9091 10.7007 19.6112C10.7007 20.3088 11.0728 20.6597 11.5988 20.6597C11.8618 20.6597 12.0453 20.5896 12.1793 20.4493C12.2586 20.357 12.3379 20.2387 12.3926 20.0761H13.1269C12.9979 20.7518 12.4421 21.2433 11.5988 21.2433C11.0977 21.2433 10.6758 21.1028 10.3882 20.8001C10.0951 20.4926 9.93652 20.0978 9.93652 19.5845ZM15.2851 19.7468H14.4168V20.5891H15.2851C15.444 20.5891 15.5727 20.5891 15.6523 20.5407C15.8111 20.4706 15.8904 20.3566 15.8904 20.146C15.8904 19.9838 15.8111 19.8653 15.6523 19.8171C15.573 19.7732 15.444 19.7468 15.2851 19.7468ZM15.444 18.0006C15.8656 18.0006 16.183 18.1146 16.367 18.3252C16.4714 18.4655 16.5258 18.6279 16.5258 18.8165C16.5258 19.0007 16.4714 19.1676 16.367 19.2816C16.2877 19.33 16.2081 19.4001 16.0744 19.4439C16.4463 19.5623 16.6297 19.8431 16.6297 20.1897C16.6297 20.3785 16.5753 20.5405 16.4714 20.703C16.4164 20.7995 16.3371 20.8696 16.2332 20.9355C15.9951 21.1022 15.6824 21.1461 15.3102 21.1461H13.7023V18.0006H15.444ZM15.2058 18.5358H14.4168V19.2379H15.2851C15.6028 19.2379 15.8111 19.1414 15.8111 18.8869C15.8111 18.7246 15.7617 18.6279 15.6279 18.5842C15.4934 18.5578 15.3647 18.5358 15.2058 18.5358ZM17.2551 21.1465V18.0006H19.7857V18.5578H17.9942V19.2816H19.5769V19.8169H17.9942V21.1463L17.2551 21.1465Z" fill="#555555"/>
</svg>
