<svg width="50" height="13" viewBox="0 0 50 13" fill="none" xmlns="http://www.w3.org/2000/svg">
<path fill-rule="evenodd" clip-rule="evenodd" d="M11.6851 9.86478C11.6646 10.2463 12.0076 10.9635 12.2326 11.2197C12.5334 11.5604 12.9124 11.8767 13.3859 12.0922C13.8043 12.2826 14.5113 12.5323 15.1011 12.5313C15.8635 12.5306 16.6274 12.5323 17.3898 12.5272C18.9135 12.5171 20.442 12.5397 21.9661 12.5238C22.5102 12.518 23.2847 12.2615 23.6519 12.0696C24.0017 11.8875 24.3036 11.6863 24.5536 11.4393C24.6026 11.3901 24.7513 11.2206 24.7992 11.1939C24.8579 11.2365 24.8632 11.254 24.9176 11.3051C25.338 11.6992 25.2021 11.6532 25.8299 12.004C26.2026 12.2128 26.7184 12.4096 27.2669 12.4857C27.4397 12.509 27.4037 12.5181 27.4745 12.529C27.5308 12.5366 27.6699 12.5316 27.7352 12.5316L33.4444 12.5241C33.8203 12.5241 34.0494 12.5333 34.4057 12.4773C34.7565 12.4222 34.8945 12.4015 35.1952 12.2895C35.7244 12.0942 36.3467 11.7459 36.6543 11.4045C36.7293 11.3226 36.7836 11.2599 36.8628 11.175C36.9922 11.0379 37.1017 10.8067 37.179 10.6256C37.4058 10.0963 37.3864 9.76985 37.3864 9.18642C37.3864 8.90815 37.4048 8.23365 37.3886 7.98658C37.383 7.90729 37.3516 7.90557 37.2929 7.86048C35.8723 6.77818 34.4537 5.65102 33.0318 4.57043L31.4773 3.38405C31.3806 3.30818 31.046 3.03184 30.9537 2.9908C30.806 3.05599 30.6713 3.16862 30.5617 3.25219C30.098 3.60696 30.0815 3.46335 30.6682 3.9126L33.9985 6.47256C34.6361 6.9652 35.2629 7.44351 35.9015 7.93486C36.1186 8.10263 36.3131 8.19709 36.3164 8.34478C36.3347 8.93744 36.427 9.90706 36.1785 10.4012C35.8623 11.0307 35.1149 11.5901 34.083 11.7152C33.8483 11.7436 33.3934 11.7286 33.1401 11.7261C31.6053 11.7069 29.9314 11.7226 28.3825 11.7226C27.7038 11.7226 27.3095 11.7244 26.7607 11.5063C26.3252 11.3335 26.0015 11.099 25.7636 10.8101C25.4562 10.4369 25.4148 10.1907 25.3236 9.70295H24.2743C24.223 9.88572 24.233 10.1054 24.1667 10.2873C24.0168 10.6989 23.5107 11.2006 23.0338 11.4228C22.6526 11.5989 22.2213 11.7267 21.6813 11.7259H16.4592C15.2382 11.7259 14.5778 11.8195 13.6296 11.2358C13.3818 11.083 13.0787 10.7583 12.9017 10.4562C12.8571 10.3794 12.7376 10.0077 12.7333 9.91754C12.7226 9.70125 12.7333 9.46683 12.7333 9.24797C12.7333 8.58073 12.7345 7.9137 12.7357 7.2471H11.8645H11.6569H6.76343H5.55671V8.05818V11.7141H1.17504C1.19339 9.04985 1.17504 6.36699 1.17504 3.70036C1.17504 3.48173 1.16535 3.24706 1.17504 3.03077C1.18062 2.93972 1.2998 2.56912 1.34443 2.49219C1.52042 2.19084 1.82339 1.86512 2.07204 1.71231C3.02056 1.12885 3.67977 1.22225 4.90044 1.22225H11.6537C11.6481 1.99871 11.6515 3.19085 11.6547 4.05921H5.55671V4.86986H11.6568H11.8642H12.7407C12.7417 3.65591 12.7407 2.44303 12.7332 1.23399H17.9818C17.9904 2.64992 17.9818 4.06668 17.9818 5.48282C17.9818 5.84679 17.9653 9.66603 18.0023 9.69536C18.0968 9.73699 18.8409 9.70531 19.0289 9.70701L19.0345 1.23571L24.2722 1.23079L24.2746 0.44023C24.269 0.437664 24.2625 0.431039 24.2603 0.43532C24.2581 0.438737 24.2495 0.431039 24.2451 0.430397C24.1799 0.418431 15.2221 0.410091 12.4673 0.423353V0.419072C11.5113 0.420787 6.78618 0.426548 5.83281 0.420787C5.06895 0.415864 4.30654 0.417357 3.54414 0.416506C2.95436 0.415655 2.24612 0.664427 1.82793 0.85571C1.35514 1.07114 0.976145 1.38766 0.675383 1.72834C0.449334 1.9848 0.107328 2.70184 0.126703 3.08335C0.0897135 3.13335 0.100571 7.33622 0.100571 7.79252C0.100571 7.89511 0.0766473 12.4028 0.11261 12.5156C0.175727 12.5265 2.75224 12.5313 5.557 12.5313H5.69381H5.83912H6.76343V8.05796H11.659C11.6612 9.01566 11.669 9.84239 11.6851 9.86478ZM48.9512 7.67369C48.9534 6.23106 48.9391 4.79078 48.9415 3.3505C48.9425 2.63922 48.5654 2.13164 48.1245 1.79246C47.929 1.64306 47.5695 1.48769 47.2402 1.38254C46.847 1.25473 46.5081 1.23399 46.0367 1.23399C44.1532 1.23486 42.2708 1.23399 40.3886 1.23399C39.9161 1.23399 39.5555 1.25238 39.137 1.3618C38.7417 1.4644 38.5189 1.60887 38.2636 1.7651C37.9714 1.94377 37.8432 2.14339 37.6575 2.38811C37.4661 2.6403 37.4272 2.93587 37.3958 3.26138H36.3347C36.3131 2.35797 35.619 1.7151 34.8238 1.43554C34.2373 1.22844 33.8551 1.23443 33.1401 1.23443H29.2732C28.6725 1.23443 27.9349 1.20515 27.3507 1.2402C26.8021 1.27183 26.2545 1.40797 25.9081 1.61998C25.3411 1.96728 24.9057 2.40819 24.837 3.02435C24.7805 3.52618 24.8034 3.98526 24.8045 4.48707C24.8056 4.74333 24.7469 4.66831 25.1315 4.96368L28.0317 7.20051C28.301 7.40761 28.7279 7.76324 28.9896 7.94064C29.2579 8.12337 29.6848 8.47921 29.9585 8.68952C30.2834 8.93743 30.6048 9.17808 30.9164 9.43434C30.8731 9.49204 30.6406 9.67965 30.5712 9.73254C30.4897 9.79512 30.3007 9.95053 30.1627 9.97724C29.9575 9.78766 28.4192 8.64292 28.0662 8.35482C27.4525 7.85557 26.6192 7.24732 25.961 6.73737C25.6078 6.46359 25.268 6.19558 24.9126 5.925C24.5576 5.65358 24.2194 5.38322 23.8599 5.11522C23.7265 5.01668 23.7687 5.01925 23.762 4.78266C23.7576 4.64908 23.761 4.51208 23.761 4.37851C23.761 3.58624 23.6817 2.8741 24.0412 2.17695C24.1422 1.97904 24.2693 1.81041 24.403 1.64585C24.4649 1.56998 24.8017 1.28593 24.9008 1.2201C25.9641 0.512894 26.6603 0.437022 28.0983 0.437022H32.3096C32.881 0.437022 33.8489 0.397705 34.3647 0.478696C35.1293 0.59903 35.9377 0.930299 36.4027 1.34108C36.4471 1.37954 36.4841 1.4037 36.5308 1.44451C36.6526 1.54967 36.7491 1.66742 36.8653 1.77857C36.9142 1.75933 37.0099 1.64927 37.051 1.6108C37.4128 1.27012 37.5702 1.11902 38.072 0.871094C38.2144 0.800145 38.423 0.710802 38.5859 0.659086C39.4432 0.38274 40.4707 0.437022 41.4603 0.437022H46.2179C47.3995 0.436171 48.4966 0.80677 49.1887 1.51975C49.8599 2.21028 49.9836 2.64522 49.9836 3.63112C49.9836 5.25178 50.012 6.88227 49.9933 8.50058L43.6922 8.50486V12.5316L37.3911 12.5308V11.7343C39.0921 11.7192 40.9203 11.7343 42.6341 11.7343L42.6331 3.2571L43.6866 3.25625C43.7203 3.28873 43.7073 3.32378 43.7073 3.38234C43.6889 4.78993 43.7073 6.26782 43.7073 7.67711L48.9512 7.67369Z" fill="#555555"/>
</svg>
