<svg width="46" height="28" viewBox="0 0 46 28" fill="none" xmlns="http://www.w3.org/2000/svg">
<path d="M9.7274 10.4001L0.202148 18.71H9.7281V10.3995" fill="#555555" fill-opacity="0.9"/>
<path d="M18.6661 14.0305L24.0238 18.7041L45.4755 0.000148773H21.647L13.3018 7.28001V18.7011H18.9694L13.6203 14.035L18.9685 9.36244H24.0247L18.6574 14.0503L18.6656 14.0304" fill="#555555" fill-opacity="0.9"/>
<path d="M13.3025 23.2044H14.6084V25.0529L16.1256 23.2044H17.5889L15.7865 25.1699L17.7737 27.4816H16.1494L14.6065 25.4979V27.4816H13.2998V23.2041H13.3011L13.3025 23.2038L13.3025 23.2044ZM18.133 22.8586H19.3782V27.4818H18.1327V22.8588L18.133 22.8589V22.8586ZM22.3382 26.0397C21.9726 26.0397 21.7092 26.0747 21.5481 26.1437C21.3868 26.212 21.3069 26.3239 21.3069 26.4763C21.3069 26.5862 21.3498 26.676 21.436 26.7446C21.5223 26.8128 21.6364 26.8465 21.7789 26.8465C22.0049 26.8465 22.1893 26.7807 22.3331 26.6479C22.4763 26.5161 22.5484 26.3429 22.5484 26.1301V26.0397H22.3382ZM23.7207 25.8237V27.4821H22.6416L22.6144 26.9891C22.4674 27.1711 22.2895 27.3055 22.0813 27.3903C21.873 27.476 21.6222 27.5176 21.3273 27.5176C20.9591 27.5176 20.6662 27.4267 20.4474 27.2437C20.2293 27.0617 20.1195 26.8168 20.1195 26.5127C20.1195 26.1621 20.2788 25.9017 20.5955 25.7316C20.9138 25.5624 21.402 25.4776 22.0617 25.4776H22.5482V25.4357C22.5482 25.2623 22.4729 25.1296 22.3208 25.0379C22.1701 24.9455 21.9482 24.8988 21.6587 24.8988C21.5169 24.8988 21.3533 24.9204 21.1725 24.9648C20.9907 25.0093 20.7951 25.0734 20.5868 25.1582L20.5657 24.4422C20.7676 24.3682 20.9867 24.3123 21.2221 24.2768C21.4574 24.2407 21.7172 24.2226 22.0001 24.2226C22.5932 24.2226 23.0285 24.3513 23.3051 24.6092C23.5814 24.8676 23.7205 25.2718 23.7205 25.8241V25.8226L23.7207 25.8237ZM26.6387 25.022C26.3932 25.022 26.1971 25.0979 26.0526 25.2508C25.9074 25.4022 25.8352 25.6107 25.8352 25.8716C25.8352 26.1379 25.9039 26.3471 26.0417 26.4976C26.1797 26.6482 26.3694 26.7238 26.6103 26.7238C26.8387 26.7238 27.0198 26.6497 27.156 26.5025C27.2909 26.3545 27.359 26.1568 27.359 25.9111C27.359 25.6453 27.2916 25.431 27.1577 25.2677C27.0218 25.1035 26.8493 25.0218 26.6387 25.0218V25.022ZM24.5897 22.8586H25.8352V24.7506C25.9793 24.5754 26.1503 24.4438 26.3467 24.3575C26.5427 24.2713 26.7706 24.2281 27.0285 24.2281C27.5157 24.2281 27.9045 24.3746 28.195 24.6687C28.4854 24.9627 28.6316 25.3578 28.6316 25.8532C28.6316 26.3546 28.4822 26.7591 28.1831 27.0678C27.8839 27.376 27.4945 27.5298 27.0139 27.5298C26.7271 27.5298 26.4719 27.4708 26.2472 27.3552C26.0233 27.2395 25.8403 27.0696 25.7004 26.8466V27.4818H24.5897V22.8583V22.8586ZM29.4344 24.3117H30.6797V27.4818H29.4344V24.312V24.3117ZM29.4344 22.8586H30.6797V23.7399H29.4344V22.8586ZM35.4372 25.6272V27.4818H34.2026V25.8534C34.2026 25.6045 34.152 25.4189 34.0501 25.2974C33.949 25.1766 33.7963 25.1154 33.5894 25.1154C33.3732 25.1154 33.201 25.1918 33.0703 25.3451C32.9409 25.4968 32.8761 25.7009 32.8761 25.9585V27.4817H31.6311V24.3121H32.7623V24.8817C32.905 24.6688 33.0894 24.5067 33.315 24.3953C33.5394 24.2839 33.7929 24.2279 34.0758 24.2279C34.5195 24.2279 34.8572 24.3473 35.0888 24.5844C35.3202 24.823 35.4377 25.1708 35.4377 25.6278" fill="#555555" fill-opacity="0.9"/>
</svg>
