<svg width="59" height="24" viewBox="0 0 59 24" fill="none" xmlns="http://www.w3.org/2000/svg">
<path d="M26.6905 11.8449V20.3822H28.5816V11.8449H26.6905ZM23.2867 8.59079H21.3416C21.1255 8.59079 21.1615 8.80135 21.1615 8.80135C21.1975 9.06933 21.2516 9.5096 21.2516 10.4284C21.2516 12.4574 21.0174 15.367 18.9283 18.1426L18.7842 18.334C18.7842 18.334 17.5235 8.99277 17.5055 8.82049C17.5055 8.82049 17.5055 8.60993 17.3254 8.60993H15.3624C15.1823 8.60993 15.1823 8.82049 15.1823 8.82049C15.1282 9.89243 14.5699 18.8891 8.39257 20.3439C9.70728 20.497 11.2921 20.0568 12.6789 19.1571C14.3898 18.0277 15.5425 16.3624 15.9207 14.4482C15.9207 14.4482 16.6771 19.4634 16.7671 20.6119V20.6885L16.7131 20.7267C14.9842 21.703 13.0211 22.2389 11.058 22.2389C6.19537 22.2389 1.89103 19.1762 0 14.5056C1.11661 19.9993 5.72712 24 11.112 24C17.3975 24 21.1435 18.4106 21.7919 14.4291C21.7919 14.4291 22.6383 20.229 22.6563 20.4205H25.2317C25.1957 20.1716 23.4848 9.03105 23.4668 8.85877C23.4668 8.85877 23.4668 8.64821 23.2867 8.64821V8.59079ZM1.51282 13.472C1.51282 7.34656 6.37547 2.36967 12.3367 2.36967C16.0287 2.36967 19.4686 4.34129 21.4677 7.53798C20.0089 3.17363 15.9387 0.1875 11.3822 0.1875C5.49299 0.1875 0.702382 5.06868 0.702382 11.0601C0.702382 12.7063 1.08059 14.3142 1.78297 15.7881C1.62088 15.0416 1.51282 14.2568 1.51282 13.4911V13.472ZM46.6454 13.07C45.961 12.2277 45.0065 11.7875 43.8539 11.7875C42.6832 11.7875 41.6927 12.1895 40.9003 12.9934C40.1258 13.7782 39.7296 14.831 39.7296 16.1327C39.7296 17.4152 40.1078 18.4489 40.8642 19.2145C41.6207 19.9802 42.7193 20.363 44.088 20.363C46.7534 20.363 47.3298 18.4106 47.5459 17.7789L46.8615 17.5492C46.2492 18.736 44.8804 18.8126 44.07 18.7551C43.4937 18.7168 42.9714 18.5063 42.5572 18.2C42.1429 17.8746 41.8548 17.4152 41.7287 16.7069L41.6927 16.439H47.6719C47.6539 15.0416 47.3118 13.9122 46.6454 13.0891V13.07ZM41.8368 15.233C41.7467 15.233 41.7467 15.1373 41.7467 15.099C41.8188 14.6013 41.9989 14.2185 42.323 13.8739C42.6832 13.472 43.2415 13.2423 43.8359 13.2423C44.3762 13.2423 44.8084 13.4145 45.1866 13.74C45.4928 14.0271 45.7089 14.4291 45.8349 14.9842C45.853 15.0416 45.889 15.2139 45.7449 15.2139H41.8368V15.233ZM52.6607 11.7492C50.3914 11.7492 49.581 13.2231 49.3288 13.9122C49.3288 13.9314 49.2388 14.1611 49.2388 14.1611L49.9952 14.4291C49.9952 14.4291 50.4815 12.936 52.4085 13.0317C54.3536 13.1083 54.1195 14.8119 54.1195 15.0799C53.0389 14.7353 51.508 14.7736 50.4995 15.2522C49.2388 15.8647 49.0407 17.0898 49.0947 17.9894C49.1488 19.3294 50.2654 20.2673 51.7061 20.3439C53.0028 20.4205 53.5792 20.1142 54.1195 19.5591L54.1014 20.3439H55.8124V18.1043V15.3479V14.8693V14.4673C55.8484 13.4528 55.182 11.7301 52.6607 11.7301V11.7492ZM54.1014 18.3723C54.1014 18.5063 54.0654 18.602 53.9574 18.6594C53.6332 18.8317 52.9488 19.0614 52.1024 19.004C51.2199 18.9274 50.8777 18.2574 50.8237 17.9703C50.8057 17.8555 50.6075 16.6112 51.7422 16.2284C52.4806 15.9796 53.4171 16.1327 53.9213 16.2858C54.0654 16.3241 54.1014 16.4198 54.1014 16.6112V18.3914V18.3723ZM28.4555 8.59079H26.8886C26.6545 8.59079 26.6905 8.83963 26.6905 8.83963C26.6905 9.10762 26.6905 10.371 26.6905 10.639H28.6176V8.82049C28.6176 8.82049 28.6356 8.60993 28.4375 8.60993L28.4555 8.59079ZM38.0727 8.59079H36.4698C36.3078 8.59079 36.3078 8.7822 36.3078 8.7822V12.2852L36.0736 12.1512C35.8215 12.0172 35.5694 11.9215 35.2992 11.864C35.0291 11.8066 34.7049 11.7875 34.3447 11.7875C33.084 11.7875 32.0574 12.1703 31.301 12.9551C30.5626 13.7208 30.1664 14.831 30.1664 16.1901C30.1664 17.3961 30.4906 18.4106 31.1209 19.2145C31.7513 19.9993 32.6698 20.4013 33.8764 20.4013C35.6054 20.4013 36.2898 19.2911 36.2898 19.2911V20.363H38.2348V18.3531C38.2348 16.0944 38.2348 8.80135 38.2348 8.80135C38.2348 8.80135 38.2348 8.59079 38.0727 8.59079ZM36.1997 18.0469C36.0196 18.2192 35.7855 18.3531 35.4973 18.468C35.1912 18.602 34.831 18.6594 34.4347 18.6594C33.7864 18.6594 33.2641 18.4297 32.8859 17.9703C32.5077 17.5109 32.3276 16.8409 32.3276 15.9413C32.3276 15.0607 32.5077 14.4099 32.8499 14.0079C33.2101 13.5868 33.7504 13.3763 34.4708 13.3763C34.849 13.3763 35.2092 13.4337 35.5333 13.5677C35.8215 13.6825 36.0376 13.7974 36.1997 13.9505C36.2537 14.0079 36.3078 14.1036 36.3078 14.2376V17.7406C36.3078 17.8746 36.2537 17.9703 36.1997 18.0277V18.0469Z" fill="#555555"/>
<path d="M56.9831 7.17432C56.3168 7.17432 55.8125 7.71029 55.8125 8.41854C55.8125 9.10765 56.3168 9.66276 56.9831 9.66276C57.6495 9.66276 58.1538 9.12679 58.1538 8.41854C58.1538 7.72943 57.6495 7.17432 56.9831 7.17432ZM56.9831 7.34659C57.5414 7.34659 57.9737 7.82514 57.9737 8.41854C57.9737 9.01194 57.5595 9.49048 56.9831 9.49048C56.4248 9.49048 55.9926 9.01194 55.9926 8.41854C55.9926 7.82514 56.4068 7.34659 56.9831 7.34659ZM56.731 8.49511H57.0192L57.3974 9.12679H57.5955L57.1993 8.49511C57.3794 8.45682 57.5414 8.34197 57.5414 8.09313C57.5414 7.84428 57.4154 7.69115 57.1092 7.69115H56.5869V9.12679H56.749V8.49511H56.731ZM56.731 8.34197V7.84428H57.0372C57.1993 7.84428 57.3613 7.88257 57.3613 8.09313C57.3613 8.34197 57.1632 8.34197 56.9651 8.34197H56.749H56.731Z" fill="#555555"/>
</svg>
