<svg width="45" height="20" viewBox="0 0 45 20" fill="none" xmlns="http://www.w3.org/2000/svg">
<g clip-path="url(#clip0_3142_500)">
<path d="M22.5231 19.7556C34.9362 19.7556 45.0023 11.2476 45.0023 0.750977H0.0439453C0.0439453 11.2476 10.1082 19.7556 22.5231 19.7556Z" fill="#555555"/>
<path d="M13.5469 4.35262H15.7141V11.0939H13.5469V4.35262ZM31.4292 4.35262H29.2584V11.0939H31.4292V4.35262ZM12.243 4.35262H10.2395V7.78257L7.73605 4.35262H5.63184V11.0909H7.73605V7.5165L9.19282 9.50515C9.50935 9.94301 10.0165 10.4934 10.655 10.8096C11.0488 10.9997 11.637 11.1806 12.3491 11.1806V4.35262H12.243ZM39.2382 4.35262H37.2383V7.78257L34.733 4.35262H32.6252V11.0909H34.733V7.5165L36.1862 9.50515C36.4991 9.94301 37.0081 10.4934 37.6483 10.8096C38.044 10.9997 38.6267 11.1806 39.3425 11.1806V4.35262H39.2382ZM27.2909 8.46065C26.273 7.87987 25.4151 7.6731 25.1471 7.5682C24.8396 7.44353 24.6417 7.17898 24.6417 6.89011C24.6417 6.47049 25.0626 6.13145 25.5769 6.13145H28.0013V4.35262H25.1075C23.5105 4.3511 22.2138 5.44424 22.2102 6.79433C22.2102 6.90836 22.2192 7.02086 22.2372 7.13337C22.0357 6.9038 21.7894 6.70463 21.5088 6.54347C20.4927 5.96421 19.633 5.75592 19.365 5.65101C19.0593 5.52482 18.865 5.26332 18.8632 4.97597C18.8632 4.55635 19.2823 4.21731 19.7984 4.21731H22.2228V2.43848H19.329C17.7302 2.44152 16.4371 3.53922 16.4389 4.89083C16.4407 5.78633 17.0198 6.60732 17.9496 7.03607C18.2787 7.18811 18.5467 7.31582 18.9837 7.47393C19.2679 7.57276 20.4675 7.90116 20.4675 8.55796C20.4675 8.96998 19.9945 9.3075 19.4118 9.3075H16.4443V11.0894H19.8794C21.498 11.0894 22.8163 9.97646 22.8163 8.60661C22.8163 8.4865 22.8019 8.37399 22.7875 8.25996C23.0357 8.54275 23.3558 8.77993 23.7299 8.95021C24.059 9.10225 24.3252 9.22844 24.764 9.38656C25.0446 9.4869 26.2514 9.81682 26.2514 10.4706C26.2514 10.8826 25.7766 11.2186 25.1921 11.2186H22.2282V13.0005H25.6615C27.0085 13.7591 28.8268 13.452 29.726 12.3133C30.6253 11.1745 30.2602 9.63742 28.9131 8.87723C28.4329 8.60661 27.87 8.46217 27.2945 8.46065" fill="white"/>
</g>
<defs>
<clipPath id="clip0_3142_500">
<rect width="44.9565" height="19.0046" fill="white" transform="translate(0.0439453 0.750977)"/>
</clipPath>
</defs>
</svg>
