<svg width="67" height="14" viewBox="0 0 67 14" fill="none" xmlns="http://www.w3.org/2000/svg">
<path d="M6.05031 6.25529C6.04951 6.26704 6.04951 6.26704 6.05138 6.27197C6.04951 6.26704 6.05404 6.26501 6.05031 6.25529Z" fill="#555555"/>
<path d="M6.42693 2.21452C4.91886 2.21452 3.69238 3.55095 3.69238 5.19335C3.69238 6.26444 4.22466 7.25865 5.08199 7.78714C5.13975 7.82267 5.17906 7.88558 5.18775 7.95738L5.30287 8.88095C5.32172 9.0343 5.43577 9.1543 5.56145 9.1543H5.87285C5.85868 9.07872 5.8524 9.00197 5.84424 8.95522L5.74677 8.40344C5.7219 8.23931 5.69971 8.0682 5.70599 7.90204C5.70532 7.84379 5.71548 7.78641 5.71508 7.72816C5.71776 7.72117 5.68941 7.57627 5.69663 7.56709C5.70305 7.56986 5.70679 7.5802 5.70866 7.58515C5.70759 7.56782 5.70826 7.55602 5.70265 7.54117C5.70158 7.59418 5.67698 7.45918 5.6751 7.45408C5.67056 7.38622 5.67056 7.31603 5.67056 7.24598C5.67136 7.13472 5.66187 7.03948 5.64422 6.93652C5.63807 6.89254 5.61774 6.41648 5.66748 6.406C5.67203 6.4041 5.66681 6.44692 5.67363 6.45012C5.6747 6.39682 5.67577 6.34367 5.67243 6.29255C5.67176 6.30449 5.67096 6.31673 5.66374 6.32561C5.65277 6.32517 5.67845 5.618 5.67885 5.54795C5.67804 5.41965 5.6739 5.2816 5.69543 5.15476C5.70759 5.10262 5.73393 5.0732 5.74075 5.03505C5.74677 5.00869 5.73621 4.96675 5.74075 4.93573C5.7445 4.87559 5.74944 4.73316 5.79932 4.68132C5.8786 4.59292 6.00014 4.70156 6.0579 4.76899C6.11566 4.83641 6.11339 4.87267 6.10697 4.93966L6.11673 4.92364C6.13264 4.92233 6.11486 5.15825 6.09494 5.16145C6.09039 5.16349 6.08999 5.13437 6.09146 5.11048C6.05937 5.43465 6.04921 5.76042 6.05042 6.08707C6.05255 6.0511 6.06806 5.40145 6.08398 5.40014C6.07261 5.39927 6.06766 6.16105 6.06766 6.2311C6.06806 6.49963 6.07943 6.76905 6.11072 7.0354C6.1289 6.75871 6.15524 6.48944 6.20632 6.21537C6.25351 5.97217 6.33213 5.74339 6.39217 5.5063C6.39217 5.5063 6.39711 5.39286 6.41824 5.37757C6.41824 5.37757 6.39818 5.47994 6.40086 5.47295L6.43067 5.35412C6.42613 5.35616 6.42613 5.35616 6.41971 5.35325C6.40233 5.2797 6.46958 5.13218 6.49178 5.06374C6.5228 4.96223 6.56064 4.86321 6.59981 4.76986C6.65864 4.61433 6.72857 4.36108 6.85345 4.25215C7.06297 4.06968 7.37223 4.26293 7.48173 4.49389C7.47144 4.48108 7.49337 4.52389 7.48922 4.51399C7.50059 4.5437 7.53 4.60661 7.52278 4.61549C7.52546 4.6085 7.50513 4.58273 7.4927 4.56511C7.53147 4.65263 7.5526 4.73666 7.57118 4.82753C7.57078 4.79855 7.57158 4.75748 7.57158 4.75748C7.59752 4.79811 7.59004 4.87733 7.59832 4.92641C7.61156 5.06053 7.62065 5.1967 7.61638 5.32689C7.61758 5.58363 7.56891 5.82173 7.49978 6.06348C7.43293 6.30959 7.35378 6.53823 7.23478 6.76147C7.19133 6.84507 7.13517 6.894 7.0861 6.96273C7.03997 7.02463 7.01697 7.1053 6.9679 7.17404C6.84516 7.35782 6.69234 7.59054 6.5133 7.71243C6.48309 7.7318 6.44645 7.7484 6.41704 7.75583C6.38949 7.7682 6.35593 7.77767 6.32652 7.78495C6.28066 7.77665 6.26327 7.80184 6.27758 7.85383C6.23867 7.97674 6.27424 8.18252 6.28106 8.31373C6.28921 8.59086 6.30593 8.88328 6.36382 9.1543H7.29214C7.41836 9.1543 7.53187 9.0343 7.55113 8.88095L7.66638 7.95738C7.67467 7.88558 7.71385 7.82267 7.77201 7.78714C8.62893 7.25865 9.16161 6.26444 9.16161 5.19335C9.16161 3.55095 7.93473 2.21452 6.42693 2.21452Z" fill="#555555"/>
<path d="M6.46906 7.37023C6.47093 7.37518 6.39846 7.4662 6.37132 7.5077C6.75372 7.0896 6.9881 6.52223 7.09494 5.94249C7.0583 6.12831 7.00428 6.31049 6.94398 6.48976C6.9036 6.59563 6.86095 6.70849 6.81415 6.81131C6.78875 6.85776 6.72537 6.9447 6.70425 7.00106C6.72457 6.92766 6.79223 6.83868 6.81629 6.77504C6.85226 6.70048 6.88662 6.62082 6.91604 6.54335C6.97634 6.36393 7.03036 6.18204 7.06699 5.99579C7.14093 5.64103 7.19053 5.22162 7.0825 4.86731C7.08183 4.8794 7.0837 4.88435 7.08063 4.86221L7.07876 4.85741C6.91938 4.36853 6.71107 5.21609 6.67095 5.35109C6.54754 5.78666 6.41651 6.26054 6.35006 6.70543C6.34899 6.68825 6.35621 6.67937 6.36517 6.67529C6.36517 6.67529 6.33468 7.04533 6.32787 7.08348C6.31329 7.24193 6.30313 7.39863 6.29297 7.55518C6.30728 7.53683 6.45622 7.36426 6.46906 7.37023Z" fill="#555555"/>
<path d="M8.07355 8.1303L7.97206 8.94261C7.92406 9.32663 7.63192 9.61658 7.29204 9.61658H5.56135C5.22161 9.61658 4.92932 9.32663 4.88146 8.94261L4.78064 8.1303C3.84444 7.50642 3.26723 6.39178 3.26723 5.19268C3.26723 3.2947 4.68478 1.75104 6.42683 1.75104C8.16901 1.75104 9.58656 3.2947 9.58656 5.19268C9.58656 6.39178 9.00949 7.50642 8.07355 8.1303ZM7.53979 10.479H5.31413C5.1966 10.479 5.10154 10.3752 5.10154 10.2473C5.10154 10.1194 5.1966 10.0162 5.31413 10.0162H7.53979C7.65719 10.0162 7.75225 10.1194 7.75225 10.2473C7.75225 10.3752 7.65719 10.479 7.53979 10.479ZM6.42683 12.2488C5.84454 12.2488 5.37109 11.733 5.37109 11.0989C5.37109 10.9714 5.46589 10.8674 5.58355 10.8674H7.27024C7.38724 10.8674 7.4827 10.9714 7.4827 11.0989C7.4827 11.733 7.00898 12.2488 6.42683 12.2488ZM6.4271 -4.89659e-07C2.87734 -4.89659e-07 0 3.13407 0 6.99993C0 10.8659 2.87734 14 6.4271 14C9.97618 14 12.8537 10.8659 12.8537 6.99993C12.8537 3.13407 9.97618 -4.89659e-07 6.4271 -4.89659e-07Z" fill="#555555"/>
<path d="M6.42706 11.7866C6.70036 11.7866 6.93367 11.5961 7.02125 11.3309H5.83301C5.92018 11.5961 6.1539 11.7866 6.42706 11.7866Z" fill="#555555"/>
<path d="M5.97395 9.36925C5.97021 9.3592 5.96834 9.3541 5.97101 9.34697C5.97329 9.35221 5.9769 9.36197 5.98532 9.36998C6.08907 9.51604 6.31691 9.35454 6.36344 9.2226C6.36718 9.23251 6.3736 9.23556 6.38002 9.23833C6.37307 9.21081 6.36892 9.18212 6.36304 9.15401H5.87207C5.88892 9.24488 5.917 9.33444 5.97395 9.36925Z" fill="#555555"/>
<path d="M50.2051 12.1215H50.6158V12.6172H50.2051V12.1215Z" fill="#555555"/>
<path d="M51.1309 11.0664C51.1309 10.7526 51.1708 10.4856 51.2509 10.2653C51.331 10.0451 51.4393 9.88053 51.5757 9.77189C51.7121 9.66339 51.8515 9.58636 51.9939 9.54121C52.1365 9.49592 52.2928 9.47335 52.4631 9.47335C52.748 9.47335 53.0283 9.53073 53.304 9.64563V10.0658C53.0467 9.95087 52.7813 9.89349 52.5075 9.89349C52.1706 9.89349 51.9255 9.9864 51.772 10.1722C51.6184 10.3582 51.5415 10.6561 51.5415 11.0664C51.5415 11.4827 51.6184 11.7833 51.772 11.9681C51.9255 12.1529 52.1706 12.2454 52.5075 12.2454C52.7924 12.2454 53.0578 12.1858 53.304 12.067V12.4992C53.0394 12.6102 52.7591 12.6655 52.4631 12.6655C52.3298 12.6655 52.2053 12.6533 52.0898 12.6291C51.9741 12.6049 51.8557 12.5565 51.7345 12.4838C51.6131 12.4111 51.5098 12.3178 51.4241 12.2037C51.3385 12.0896 51.2682 11.9356 51.2132 11.7418C51.1583 11.548 51.1309 11.3228 51.1309 11.0664Z" fill="#555555"/>
<path d="M53.9523 10.1655C53.806 10.355 53.733 10.6563 53.733 11.0694C53.733 11.4826 53.806 11.7839 53.9523 11.9734C54.0984 12.1627 54.3325 12.2575 54.6545 12.2575C54.9763 12.2575 55.211 12.1637 55.3581 11.9763C55.5051 11.7888 55.5787 11.4865 55.5787 11.0694C55.5787 10.6522 55.5051 10.3499 55.3581 10.1625C55.211 9.97504 54.9763 9.8814 54.6545 9.8814C54.3325 9.8814 54.0984 9.97606 53.9523 10.1655ZM53.4417 11.872C53.362 11.6514 53.3223 11.3839 53.3223 11.0694C53.3223 10.755 53.362 10.4875 53.4417 10.2667C53.5211 10.0461 53.6294 9.8814 53.7663 9.77247C53.9032 9.66369 54.0425 9.58665 54.184 9.54121C54.3256 9.49592 54.4819 9.47335 54.653 9.47335C54.8242 9.47335 54.9814 9.49592 55.125 9.54121C55.2684 9.58665 55.4085 9.66369 55.5454 9.77247C55.6823 9.8814 55.7906 10.0461 55.8702 10.2667C55.9496 10.4875 55.9894 10.755 55.9894 11.0694C55.9894 11.3839 55.9496 11.6514 55.8702 11.872C55.7906 12.0926 55.6823 12.2575 55.5454 12.3663C55.4085 12.475 55.2684 12.5522 55.125 12.5975C54.9814 12.6428 54.8242 12.6655 54.653 12.6655C54.4819 12.6655 54.3256 12.6428 54.184 12.5975C54.0425 12.5522 53.9032 12.475 53.7663 12.3663C53.6294 12.2575 53.5211 12.0926 53.4417 11.872Z" fill="#555555"/>
<path d="M56.2725 12.6167V9.76908C56.6373 9.57161 57.0163 9.47287 57.4091 9.47287C57.7196 9.47287 57.9689 9.55748 58.1577 9.7267C58.5223 9.55748 58.8733 9.47287 59.2104 9.47287C59.5549 9.47287 59.8222 9.57161 60.0122 9.76908C60.2021 9.96655 60.297 10.2447 60.297 10.6034V12.6167H59.8861V10.6034C59.8861 10.5167 59.8789 10.4397 59.8641 10.3721C59.8492 10.3047 59.8193 10.2326 59.7739 10.156C59.7288 10.0794 59.6559 10.0204 59.5552 9.97922C59.4545 9.93786 59.3303 9.91718 59.1827 9.91718C58.944 9.91718 58.6825 9.96859 58.3978 10.0713C58.4593 10.2205 58.4901 10.3979 58.4901 10.6034V12.6167H58.0794V10.6034C58.0794 10.5127 58.0715 10.4336 58.0558 10.366C58.0402 10.2986 58.0096 10.2275 57.9644 10.153C57.919 10.0784 57.8448 10.0204 57.7414 9.97922C57.638 9.93786 57.5107 9.91718 57.3592 9.91718C57.1283 9.91718 56.903 9.95446 56.6832 10.029V12.6167H56.2725Z" fill="#555555"/>
<path d="M61.0957 12.1215H61.5064V12.6172H61.0957V12.1215Z" fill="#555555"/>
<path d="M62.693 11.7147C62.6947 12.0766 62.9451 12.2575 63.4437 12.2575C63.549 12.2575 63.6442 12.2445 63.7292 12.2183C63.8141 12.1921 63.9023 12.141 63.9938 12.0645C64.0851 11.9881 64.1562 11.8625 64.2071 11.6876C64.2579 11.5127 64.2833 11.2956 64.2833 11.0362C64.2833 10.6363 64.2131 10.3458 64.0727 10.1649C63.9324 9.98407 63.7051 9.89349 63.3912 9.89349C63.1565 9.89349 62.9239 9.94475 62.693 10.0473V11.7147ZM62.2822 11.6898V8.3475H62.693V9.59903C62.92 9.51515 63.1528 9.47335 63.3912 9.47335C63.5207 9.47335 63.6425 9.48544 63.7565 9.50961C63.8704 9.53393 63.986 9.58141 64.1037 9.65204C64.2214 9.72267 64.3226 9.81354 64.4079 9.92465C64.493 10.0358 64.562 10.1866 64.6149 10.3774C64.6677 10.5683 64.694 10.7879 64.694 11.0362C64.694 11.308 64.6649 11.5458 64.6066 11.75C64.5481 11.9541 64.4763 12.1124 64.3912 12.225C64.306 12.3377 64.2037 12.4293 64.0842 12.4997C63.9648 12.57 63.8546 12.6153 63.7535 12.6354C63.6526 12.6555 63.5492 12.6655 63.4437 12.6655C63.2381 12.6655 63.0593 12.6379 62.9074 12.5825C62.7555 12.5272 62.6415 12.4632 62.5655 12.3907C62.4896 12.3182 62.4281 12.2316 62.3808 12.1308C62.3336 12.0302 62.3054 11.947 62.296 11.8816C62.2868 11.8161 62.2822 11.7521 62.2822 11.6898Z" fill="#555555"/>
<path d="M64.9863 12.6167V9.77083C65.4137 9.57627 65.8725 9.47884 66.363 9.47884V9.89898C66.053 9.90713 65.7309 9.96073 65.3971 10.0596V12.6167H64.9863Z" fill="#555555"/>
<path d="M17.2378 6.0841C17.3873 5.89332 17.462 5.57338 17.462 5.12411C17.462 4.71985 17.3964 4.41549 17.265 4.21044C17.1334 4.00554 16.908 3.90302 16.5884 3.90302C16.1295 3.90302 15.9002 3.99855 15.9002 4.18932V6.19346C15.993 6.25536 16.0961 6.30021 16.2095 6.32832C16.3229 6.35642 16.4337 6.3704 16.542 6.3704C16.8562 6.3704 17.0882 6.27502 17.2378 6.0841ZM18.0959 3.38516C18.4413 3.74181 18.614 4.33539 18.614 5.1662C18.614 5.83434 18.4594 6.3704 18.1501 6.77467C17.8408 7.17879 17.4182 7.38092 16.8822 7.38092C16.4904 7.38092 16.1631 7.30505 15.9002 7.15359V8.77881H14.7715V3.89457C14.7715 3.5522 14.9454 3.294 15.2933 3.11997C15.6412 2.94595 16.0884 2.85609 16.6348 2.85041C17.2635 2.85041 17.7506 3.02866 18.0959 3.38516Z" fill="#555555"/>
<path d="M20.2134 4.65251H21.6592C21.6231 4.34931 21.5497 4.13334 21.4388 4.00417C21.3279 3.875 21.1643 3.81048 20.9479 3.81048C20.5355 3.81048 20.2907 4.09126 20.2134 4.65251ZM22.8034 5.45259H20.2212C20.319 6.0421 20.6823 6.3367 21.3113 6.3367C21.5019 6.3367 21.6889 6.30729 21.8718 6.24831C22.0547 6.18933 22.2494 6.11229 22.4555 6.01676V7.0947C22.0327 7.28533 21.5588 7.38086 21.0329 7.38086C20.6359 7.38086 20.288 7.29246 19.9892 7.11567C19.6901 6.93888 19.4582 6.6849 19.2934 6.3536C19.1283 6.02244 19.0459 5.6323 19.0459 5.18303C19.0459 4.44207 19.2146 3.86801 19.5524 3.46097C19.8898 3.05394 20.3705 2.85035 20.9943 2.85035C22.2159 2.85035 22.8189 3.71786 22.8034 5.45259Z" fill="#555555"/>
<path d="M24.3741 3.02709C24.7863 2.92602 25.155 2.87549 25.4797 2.87549C26.0313 2.87549 26.4462 2.99345 26.7245 3.22922C27.0029 3.46499 27.142 3.85237 27.142 4.39134V7.25439H25.99V4.644C25.99 4.15556 25.7374 3.91135 25.2323 3.91135C25.1189 3.91135 25.0029 3.92533 24.8844 3.95343C24.7658 3.98154 24.673 4.01532 24.6061 4.0545V7.25439H23.4541V3.35548C23.6551 3.23767 23.9618 3.12816 24.3741 3.02709Z" fill="#555555"/>
<path d="M28.5176 7.30091C28.332 7.24761 28.1259 7.17043 27.8991 7.06936V5.96608C28.3167 6.3086 28.7547 6.47986 29.2136 6.47986C29.3887 6.47986 29.5163 6.44753 29.5962 6.38301C29.6761 6.3185 29.716 6.2301 29.716 6.11768C29.716 5.98865 29.6515 5.89326 29.5228 5.83137C29.3938 5.76963 29.1876 5.70234 28.9043 5.62924C28.6052 5.56196 28.3592 5.42725 28.1659 5.22512C27.9725 5.02299 27.876 4.72824 27.876 4.34086C27.876 4.0097 27.9533 3.73752 28.108 3.52403C28.2625 3.31083 28.4569 3.15501 28.6916 3.05671C28.9261 2.95856 29.1696 2.90933 29.4223 2.90933C29.7315 2.90933 29.9828 2.93875 30.1761 2.99773C30.3693 3.05671 30.5588 3.14802 30.7444 3.27137V4.25669C30.4815 4.09956 30.2779 3.98728 30.1335 3.91985C29.9892 3.85243 29.8217 3.81879 29.631 3.81879C29.4402 3.81879 29.2985 3.85111 29.2057 3.91563C29.113 3.98029 29.0665 4.07145 29.0665 4.18926C29.0665 4.32965 29.1181 4.43217 29.2212 4.49669C29.3243 4.56134 29.4891 4.62717 29.716 4.6946C29.9737 4.76756 30.1773 4.8392 30.3268 4.90925C30.4763 4.97959 30.6103 5.10017 30.7289 5.27143C30.8473 5.44269 30.9067 5.68268 30.9067 5.99142C30.8964 6.47432 30.7289 6.8266 30.4041 7.04824C30.0794 7.26989 29.667 7.38086 29.167 7.38086C28.9197 7.38086 28.7032 7.35406 28.5176 7.30091Z" fill="#555555"/>
<path d="M33.6827 6.43777C33.7858 6.39845 33.8373 6.31981 33.8373 6.202V5.54521C33.6569 5.47779 33.4585 5.444 33.2422 5.444C32.9895 5.444 32.8054 5.48492 32.6893 5.56618C32.5734 5.64759 32.5153 5.77545 32.5153 5.94933C32.5153 6.11229 32.5759 6.24408 32.6971 6.34515C32.8181 6.44622 32.9611 6.49675 33.1261 6.49675C33.3941 6.49675 33.5796 6.47709 33.6827 6.43777ZM34.4559 3.19142C34.8064 3.40768 34.9817 3.7965 34.9817 4.35776L34.9741 6.37034C34.9688 6.72407 34.8064 6.98082 34.4868 7.14086C34.1671 7.30091 33.7008 7.38086 33.0875 7.38086C31.9432 7.38086 31.3711 6.89533 31.3711 5.92414C31.3711 5.51434 31.4882 5.19425 31.7229 4.96401C31.9574 4.73391 32.3066 4.61887 32.7705 4.61887C32.9611 4.61887 33.1518 4.64552 33.3426 4.69882C33.5332 4.75226 33.6981 4.82085 33.8373 4.90517V4.63562C33.8373 4.14718 33.5488 3.90296 32.9715 3.90296C32.7497 3.90296 32.5218 3.94665 32.2872 4.03359C32.0527 4.12067 31.8659 4.22596 31.7268 4.34931V3.23773C31.8659 3.13681 32.0785 3.04972 32.3645 2.97676C32.6507 2.9038 32.9586 2.86725 33.2884 2.86725C33.7162 2.86725 34.1052 2.97545 34.4559 3.19142Z" fill="#555555"/>
<path d="M37.5874 2.97656C38.1286 2.97656 38.5191 3.10573 38.7588 3.36393C38.9984 3.62227 39.1182 4.00673 39.1182 4.5176V7.25439H38.5616V4.5176C38.5616 3.85528 38.2162 3.52383 37.5255 3.52383C37.2058 3.52383 36.8683 3.58004 36.5127 3.69232V7.25439H35.9561V3.38912C36.456 3.11418 36.9998 2.97656 37.5874 2.97656Z" fill="#555555"/>
<path d="M42.9989 5.16614C42.9989 4.63853 42.9034 4.23441 42.7128 3.95349C42.5221 3.67287 42.2103 3.53248 41.7772 3.53248C40.9682 3.53248 40.5635 4.07713 40.5635 5.16614C40.5635 6.27219 40.9682 6.82514 41.7772 6.82514C42.5916 6.82514 42.9989 6.27219 42.9989 5.16614ZM40.4513 6.80825C40.1548 6.42656 40.0068 5.87914 40.0068 5.16614C40.0068 4.44193 40.1575 3.89597 40.4592 3.52826C40.7607 3.16069 41.1975 2.97676 41.7696 2.97676C42.3726 2.97676 42.8211 3.1719 43.1148 3.5619C43.4086 3.95218 43.5555 4.48693 43.5555 5.16614C43.5555 5.86239 43.401 6.40544 43.0917 6.79558C42.7824 7.18586 42.3468 7.38086 41.7851 7.38086C41.1923 7.38086 40.7477 7.18994 40.4513 6.80825Z" fill="#555555"/>
<path d="M45.171 3.78937C44.9957 3.96063 44.8849 4.26514 44.8386 4.70304H47.0421C47.0163 4.31014 46.9145 4.01669 46.7367 3.82301C46.5589 3.62932 46.2945 3.53248 45.9441 3.53248C45.6039 3.53248 45.3463 3.61811 45.171 3.78937ZM47.2353 3.59991C47.5084 4.01538 47.6399 4.56834 47.6297 5.25876H44.8153C44.8153 5.76409 44.9235 6.15146 45.1401 6.42088C45.3566 6.69029 45.6658 6.82514 46.0679 6.82514C46.5833 6.82514 47.0239 6.70441 47.39 6.46296V7.08611C47.0136 7.28256 46.5626 7.38086 46.037 7.38086C45.4751 7.38086 45.0369 7.1914 44.7226 6.81247C44.4081 6.43355 44.251 5.87928 44.251 5.14925C44.251 4.4364 44.3991 3.89597 44.6954 3.52826C44.9918 3.16069 45.4079 2.97676 45.9441 2.97676C46.5319 2.97676 46.9621 3.18443 47.2353 3.59991Z" fill="#555555"/>
<path d="M51.7353 3.05228L50.0962 7.25439H49.5319L47.9004 3.05228H48.4958L49.8644 6.58916L51.1787 3.05228H51.7353Z" fill="#555555"/>
<path d="M52.9259 3.78937C52.7506 3.96063 52.6398 4.26514 52.5935 4.70304H54.797C54.7712 4.31014 54.6694 4.01669 54.4916 3.82301C54.3138 3.62932 54.0494 3.53248 53.699 3.53248C53.3588 3.53248 53.1012 3.61811 52.9259 3.78937ZM54.9902 3.59991C55.2633 4.01538 55.3948 4.56834 55.3846 5.25876H52.5702C52.5702 5.76409 52.6784 6.15146 52.895 6.42088C53.1115 6.69029 53.4207 6.82514 53.8228 6.82514C54.3382 6.82514 54.7788 6.70441 55.1449 6.46296V7.08611C54.7685 7.28256 54.3175 7.38086 53.7919 7.38086C53.2299 7.38086 52.7918 7.1914 52.4774 6.81247C52.163 6.43355 52.0059 5.87928 52.0059 5.14925C52.0059 4.4364 52.154 3.89597 52.4503 3.52826C52.7467 3.16069 53.1628 2.97676 53.699 2.97676C54.2867 2.97676 54.717 3.18443 54.9902 3.59991Z" fill="#555555"/>
<path d="M57.9048 2.97656C58.446 2.97656 58.8364 3.10573 59.0762 3.36393C59.3158 3.62227 59.4356 4.00673 59.4356 4.5176V7.25439H58.879V4.5176C58.879 3.85528 58.5336 3.52383 57.8429 3.52383C57.5232 3.52383 57.1857 3.58004 56.8301 3.69232V7.25439H56.2734V3.38912C56.7734 3.11418 57.3171 2.97656 57.9048 2.97656Z" fill="#555555"/>
<path d="M61.0361 7.03969C60.8556 6.85169 60.7656 6.58373 60.7656 6.23553V3.60825H60.0928V3.05238H60.7656V1.86493H61.3222V3.05238H62.3196V3.60825H61.3222V6.04185C61.3222 6.28898 61.3582 6.46854 61.4304 6.58082C61.5026 6.6931 61.6365 6.74917 61.8324 6.74917C62.0231 6.74917 62.1855 6.71553 62.3196 6.6481V7.22071C62.2473 7.24896 62.1559 7.2727 62.0451 7.29221C61.9342 7.31187 61.8299 7.32178 61.7319 7.32178C61.4484 7.32178 61.2166 7.22785 61.0361 7.03969Z" fill="#555555"/>
<path d="M65.9686 5.16614C65.9686 4.63853 65.8732 4.23441 65.6825 3.95349C65.4918 3.67287 65.18 3.53248 64.747 3.53248C63.9379 3.53248 63.5332 4.07713 63.5332 5.16614C63.5332 6.27219 63.9379 6.82514 64.747 6.82514C65.5614 6.82514 65.9686 6.27219 65.9686 5.16614ZM63.421 6.80825C63.1246 6.42656 62.9766 5.87914 62.9766 5.16614C62.9766 4.44193 63.1272 3.89597 63.4289 3.52826C63.7304 3.16069 64.1672 2.97676 64.7393 2.97676C65.3423 2.97676 65.7908 3.1719 66.0845 3.5619C66.3783 3.95218 66.5252 4.48693 66.5252 5.16614C66.5252 5.86239 66.3707 6.40544 66.0614 6.79558C65.7522 7.18586 65.3165 7.38086 64.7548 7.38086C64.162 7.38086 63.7174 7.18994 63.421 6.80825Z" fill="#555555"/>
</svg>
