<svg width="63" height="17" viewBox="0 0 63 17" fill="none" xmlns="http://www.w3.org/2000/svg">
<path fill-rule="evenodd" clip-rule="evenodd" d="M29.516 6.20784C29.55 5.24233 28.6938 4.36155 26.8895 4.32915C25.6137 4.31219 24.6663 4.72217 24.5815 5.70177C24.5116 6.51899 24.8092 6.68137 25.3844 6.89262C25.6837 7.18852 28.0997 7.54796 28.5862 7.62758C29.2877 7.74332 30.796 8.03644 31.5986 8.80362C33.0696 10.2415 32.3878 13.0678 30.796 14.0318C29.7072 14.6848 28.2215 14.8484 26.8035 14.8643C26.156 14.8817 24.6145 14.6683 23.6694 14.0318C22.5325 13.2628 21.9715 12.0867 21.8867 10.9611H24.4392C24.4392 11.2705 24.5456 11.7608 24.9815 12.1866C25.5579 12.743 26.5071 12.9214 27.3811 12.8884C28.2569 12.8722 29.078 12.6284 29.4108 12.3314C29.9706 11.8434 30.0937 10.9107 29.4631 10.3244C28.6215 9.50725 26.1031 9.50725 24.4587 8.98431C23.0736 8.54242 21.9385 7.61008 22.1479 5.68579C22.3578 3.7896 23.8263 2.38525 26.9441 2.38525C27.6246 2.38525 30.0055 2.43462 31.2492 3.90553C31.9145 4.70457 32.0891 5.8154 31.9852 6.20784H29.516Z" fill="#555555"/>
<path fill-rule="evenodd" clip-rule="evenodd" d="M38.9174 10.3255C38.217 10.7167 37.2744 10.6854 36.6421 10.7979C35.8909 10.9298 35.3623 11.5171 35.5751 12.2371C35.7156 12.7579 36.1503 13.1343 37.2019 12.9714C38.6539 12.7579 38.9174 11.8112 38.9174 10.8304V10.3255ZM39.1976 14.4908C39.023 14.2786 38.9174 13.9192 38.935 13.6085C38.0778 14.3592 37.3248 14.8654 35.8909 14.8654C33.9636 14.8654 33.0184 13.8541 33.0886 12.1383C33.1414 10.8962 33.666 9.68766 35.8375 9.34357C36.7461 9.31013 37.7254 9.11647 38.3052 8.93646C38.7412 8.78822 38.9528 8.36464 38.9174 7.93868C38.9174 7.38436 38.4257 7.13847 37.3059 7.13847C35.9056 7.13847 35.73 7.93868 35.6968 8.57746H33.3859C33.4226 5.75158 36.012 5.48975 37.3059 5.48975C38.2524 5.48975 39.0746 5.6352 39.5486 5.81643C40.4938 6.17534 41.2448 6.89364 41.2448 8.29988V13.1343C41.2283 13.5263 41.4743 13.9192 41.787 14.1786V14.4908H39.1976Z" fill="#555555"/>
<path fill-rule="evenodd" clip-rule="evenodd" d="M42.2061 5.81579H43.5388V4.7861C43.5388 3.46461 44.2568 2.58154 45.8483 2.58154H47.3728V4.28021H46.5158C46.183 4.28021 45.9889 4.47773 45.9889 4.88381V5.81579H47.4434V7.33436H45.9889V14.4902H43.5388V7.33436H42.2061V5.81579Z" fill="#555555"/>
<path fill-rule="evenodd" clip-rule="evenodd" d="M48.5078 5.63562H50.9599V7.35301H50.9939C51.1509 6.82993 51.2738 6.52039 52.1312 5.96284C52.552 5.66811 53.1124 5.37451 53.8821 5.49016V7.82604C52.8334 7.7125 51.2562 7.58181 50.9599 9.50869V14.4912H48.5078V5.63562Z" fill="#555555"/>
<path fill-rule="evenodd" clip-rule="evenodd" d="M60.1274 10.3255C59.427 10.7167 58.4818 10.6854 57.8549 10.7979C57.1019 10.9298 56.578 11.5171 56.7855 12.2371C56.9263 12.7579 57.3655 13.1343 58.4124 12.9714C59.8658 12.7579 60.1274 11.8112 60.1274 10.8304V10.3255ZM60.4103 14.4908C60.234 14.2786 60.1274 13.9192 60.1456 13.6085C59.2874 14.3592 58.5365 14.8654 57.1019 14.8654C55.1751 14.8654 54.2279 13.8541 54.3008 12.1383C54.3531 10.8962 54.8759 9.68766 57.0491 9.34357C57.9589 9.31013 58.9395 9.11647 59.5158 8.93646C59.9569 8.78822 60.1656 8.36464 60.1274 7.93868C60.1274 7.38436 59.6387 7.13847 58.5189 7.13847C57.1172 7.13847 56.9439 7.93868 56.9074 8.57746H54.5988C54.632 5.75158 57.2213 5.48975 58.5189 5.48975C59.4641 5.48975 60.2862 5.6352 60.7598 5.81643C61.7025 6.17534 62.4563 6.89364 62.4563 8.29988V13.1343C62.4389 13.5263 62.6839 13.9192 63 14.1786V14.4908H60.4103Z" fill="#555555"/>
<path fill-rule="evenodd" clip-rule="evenodd" d="M9.10489 9.59387C9.0653 8.78158 8.73652 8.28933 8.41159 7.99281H8.41553C8.84656 7.99281 9.44637 8.34261 9.44637 8.90226C9.44637 9.21122 9.33315 9.43638 9.10489 9.59387ZM7.64706 11.1496V10.3699C7.95843 10.3635 8.24056 10.3369 8.49268 10.2909C8.371 10.8215 8.0538 11.0731 7.64706 11.1496ZM6.4705 10.2409C6.62945 10.2924 6.82693 10.334 7.08477 10.3554V11.1337C6.77422 11.0315 6.50604 10.741 6.4705 10.2409ZM6.46626 7.99281H7.08477V9.87473C6.85401 9.84636 6.64888 9.79453 6.46626 9.72559V7.99281ZM5.49165 6.73356C5.49165 6.45144 5.6308 6.2072 5.90398 6.03091V7.41026C5.64219 7.27051 5.49165 7.01379 5.49165 6.73356ZM7.08477 4.55902V5.26589C6.87748 5.27132 6.67769 5.29183 6.48887 5.32665C6.55683 4.97497 6.77552 4.68307 7.08477 4.55902ZM8.28981 5.43769C8.1171 5.38154 7.9074 5.3245 7.64706 5.29187V4.52801C7.94828 4.61966 8.20295 4.90667 8.28981 5.43769ZM7.64706 7.49747V5.76576C7.88196 5.79606 8.1081 5.84924 8.32078 5.92132C8.2989 6.66992 7.88922 7.36408 7.64706 7.49747ZM6.46626 5.80912C6.64768 5.76863 6.85392 5.74413 7.08477 5.73816V7.52058H6.46626V5.80912ZM8.54626 9.81243C8.29856 9.86508 7.99907 9.89201 7.64706 9.8978V7.99752C7.90413 8.05237 8.54674 8.62935 8.54674 9.75925C8.54674 9.77716 8.54654 9.79488 8.54626 9.81243ZM8.32179 7.52058H8.29356C8.57516 7.19663 8.79924 6.68361 8.8646 6.16206C9.06232 6.27273 9.2396 6.40068 9.39014 6.54116C9.46507 6.61113 9.50259 6.64609 9.55881 6.64609C9.67126 6.64609 9.72748 6.55866 9.67126 6.47119C9.52135 6.24383 9.46507 6.05143 9.46507 5.8066C9.46507 5.64916 9.52135 5.50927 9.55881 5.4218C9.59628 5.33437 9.55881 5.2469 9.44637 5.2469C9.35263 5.2469 9.33392 5.31687 9.2964 5.36934C9.22445 5.48688 9.0832 5.58799 8.87302 5.59594C8.79207 4.6508 8.27418 4.18795 7.74003 4.06027C7.93179 3.63427 8.40687 3.37279 9.03399 3.2531C9.12773 3.23559 9.20271 3.20063 9.20271 3.13067C9.20271 3.04324 9.12773 3.00823 9.03399 3.00823C8.82786 3.00823 8.52793 3.11316 8.28428 3.18313C7.90947 3.28806 7.59084 3.35803 7.30967 3.35803C6.70992 3.35803 6.1851 3.11316 6.01643 3.11316C5.94149 3.11316 5.88522 3.16563 5.88522 3.2356C5.88522 3.28806 5.92274 3.34053 6.03518 3.37553C6.53341 3.52633 6.85747 3.76738 7.00051 4.09227C6.70448 4.1937 6.459 4.39997 6.29115 4.66952C6.0917 4.29423 5.8391 4.12759 5.4729 4.12759C5.1168 4.12759 4.83563 4.37241 4.83563 4.66974C4.83563 4.8796 4.98559 5.03704 5.15426 5.03704C5.22924 5.03704 5.26671 5.00208 5.26671 4.94962C5.26671 4.8796 5.22924 4.86214 5.22924 4.75721C5.22924 4.65228 5.32294 4.56481 5.4729 4.56481C5.69779 4.56481 5.90398 4.77472 5.90398 5.35183V5.49558C5.31437 5.73924 4.92937 6.16861 4.92937 6.75102C4.92937 7.34932 5.35218 7.79673 5.90398 7.94214V9.41767C5.48353 9.10189 5.24805 8.6937 5.09804 8.39507C5.06057 8.3251 5.02306 8.23763 4.92937 8.23763C4.81692 8.23763 4.77941 8.34261 4.83563 8.46504C4.89185 8.58743 4.92937 8.77983 4.92937 8.95473C4.92937 9.16463 4.85439 9.35699 4.70443 9.49692C4.62949 9.56685 4.57322 9.61931 4.57322 9.67182C4.57322 9.74175 4.62949 9.77675 4.68572 9.77675C4.79816 9.77675 4.92937 9.65432 5.17302 9.65432C5.32294 9.65432 5.51036 9.72429 5.81029 9.89919C5.84174 9.91646 5.87272 9.93496 5.90398 9.95425V10.1615V10.4064C5.90398 10.6512 5.79153 10.8086 5.56664 10.8086C5.41667 10.8086 5.32294 10.7037 5.32294 10.5638C5.32294 10.4588 5.39792 10.4239 5.39792 10.3714C5.39792 10.3189 5.36045 10.2839 5.28547 10.2839C5.17302 10.2839 4.98559 10.4413 4.98559 10.7037C4.98559 10.9486 5.17302 11.2459 5.56664 11.2459C5.78951 11.2459 5.99887 11.1827 6.19476 11.0029C6.37637 11.2767 6.69496 11.521 7.05529 11.6111C6.9566 12.0731 6.61498 12.4527 6.12892 12.4527C5.88522 12.4527 5.75406 12.3303 5.75406 12.1728C5.75406 12.0504 5.84775 11.9805 5.92274 11.9455C6.01643 11.9105 6.09141 11.893 6.09141 11.7881C6.09141 11.7356 6.05389 11.6656 5.86646 11.6656C5.52912 11.6656 5.248 11.9455 5.248 12.2778C5.248 12.645 5.52912 12.9948 6.11016 12.9948C6.60536 12.9948 7.03653 12.7682 7.309 12.4825C7.6296 12.7243 8.11796 12.9249 8.35931 12.9249C8.43424 12.9249 8.50922 12.8899 8.50922 12.8199C8.50922 12.75 8.43424 12.6975 8.35931 12.6626C7.92818 12.4527 7.64706 12.1554 7.64706 11.6307V11.622C8.31631 11.5056 8.94223 10.9993 9.0806 10.1281C9.68968 9.88662 10.0087 9.47045 10.0087 8.90226C10.0087 8.08024 9.18396 7.52058 8.32179 7.52058ZM11.508 12.4527C10.8521 12.4527 10.421 12.1029 10.421 11.5782C10.421 11.1409 10.7396 10.7911 11.1145 10.7911C11.2644 10.7911 11.3956 10.8436 11.3956 10.9835C11.3956 11.071 11.3581 11.1409 11.4518 11.1409C11.508 11.1409 11.5643 11.0885 11.5643 10.9486C11.5643 10.7737 11.3956 10.6337 11.1519 10.6337H11.0957C11.1332 10.5638 11.1332 10.4938 11.1332 10.4763C11.1332 10.3189 11.002 10.2315 10.8708 10.2315C10.7396 10.2315 10.6084 10.3014 10.6084 10.3889C10.6084 10.4239 10.6272 10.4413 10.6646 10.4413C10.7209 10.4413 10.7396 10.3889 10.8333 10.3889C10.9083 10.3889 10.9645 10.4239 10.9645 10.5113C10.9645 10.6337 10.8521 10.6862 10.7583 10.7387C10.4585 10.8961 10.2523 11.2109 10.2523 11.5782C10.2523 12.0679 10.5522 12.3827 10.9833 12.5226L10.7021 12.9249C10.3273 12.9249 10.1399 13.1872 9.80247 13.7469C9.765 13.607 9.6525 13.502 9.46507 13.502C9.25894 13.502 9.12773 13.642 9.12773 13.8343C9.12773 13.8868 9.1652 13.9218 9.20271 13.9218C9.25894 13.9218 9.2964 13.8868 9.2964 13.8343C9.2964 13.7469 9.35263 13.6594 9.46507 13.6594C9.59628 13.6594 9.6525 13.7469 9.6525 13.8518C9.6525 13.9743 9.63379 14.0442 9.54006 14.1841C9.14649 14.7788 8.60291 15.0761 8.13436 15.0761C7.72204 15.0761 7.47839 14.8488 7.47839 14.6214C7.47839 14.4115 7.60959 14.2366 7.83449 14.2366C7.98445 14.2366 8.07814 14.3241 8.07814 14.4465C8.07814 14.5514 7.98445 14.5514 7.98445 14.6039C7.98445 14.6389 8.02192 14.6564 8.05938 14.6564C8.17188 14.6564 8.24681 14.5339 8.24681 14.4115C8.24681 14.2191 8.07814 14.0792 7.83449 14.0792C7.60959 14.0792 7.42216 14.2191 7.36589 14.359C7.30967 14.2191 7.12224 14.0792 6.89735 14.0792C6.65369 14.0792 6.48502 14.2191 6.48502 14.4115C6.48502 14.5339 6.55995 14.6564 6.67245 14.6564C6.70992 14.6564 6.74738 14.6389 6.74738 14.6039C6.74738 14.5514 6.65369 14.5514 6.65369 14.4465C6.65369 14.3241 6.74738 14.2366 6.89735 14.2366C7.12224 14.2366 7.25345 14.4115 7.25345 14.6214C7.25345 14.8488 7.00979 15.0761 6.59747 15.0761C6.12892 15.0761 5.58535 14.7788 5.19178 14.1841C5.09804 14.0442 5.07928 13.9743 5.07928 13.8518C5.07928 13.7469 5.13551 13.6594 5.26671 13.6594C5.37921 13.6594 5.43543 13.7469 5.43543 13.8343C5.43543 13.8868 5.4729 13.9218 5.52912 13.9218C5.56664 13.9218 5.6041 13.8868 5.6041 13.8343C5.6041 13.642 5.4729 13.502 5.26671 13.502C5.07928 13.502 4.96684 13.607 4.92937 13.7469C4.59198 13.1872 4.40455 12.9249 4.02969 12.9249L3.74857 12.5226C4.17965 12.3827 4.47953 12.0679 4.47953 11.5782C4.47953 11.2109 4.27334 10.8961 3.97347 10.7387C3.87978 10.6862 3.76728 10.6337 3.76728 10.5113C3.76728 10.4239 3.82351 10.3889 3.89854 10.3889C3.99223 10.3889 4.01093 10.4413 4.06721 10.4413C4.10467 10.4413 4.12343 10.4239 4.12343 10.3889C4.12343 10.3014 3.99223 10.2315 3.86102 10.2315C3.72982 10.2315 3.59861 10.3189 3.59861 10.4763C3.59861 10.4938 3.59861 10.5638 3.63608 10.6337H3.5799C3.33625 10.6337 3.16753 10.7737 3.16753 10.9486C3.16753 11.0885 3.22375 11.1409 3.27998 11.1409C3.37372 11.1409 3.33625 11.071 3.33625 10.9835C3.33625 10.8436 3.46741 10.7911 3.61737 10.7911C3.99223 10.7911 4.31086 11.1409 4.31086 11.5782C4.31086 12.1029 3.87978 12.4527 3.22375 12.4527C2.45533 12.4527 1.87429 11.928 1.87429 11.1934C1.87429 10.4763 2.32412 9.98661 2.83019 9.54939L3.26127 9.16463C3.8048 8.6924 4.02969 8.20267 4.02969 7.59055C4.02969 6.92592 3.59861 6.19136 2.69898 5.82406C2.88641 5.7716 2.99886 5.5967 2.99886 5.38684C2.99886 5.2469 2.94263 5.15948 2.94263 5.0545C2.94263 4.84464 3.07384 4.72221 3.26127 4.72221C3.42994 4.72221 3.54239 4.84464 3.54239 4.96707C3.54239 5.072 3.46741 5.15948 3.33625 5.15948C3.27998 5.15948 3.24251 5.15948 3.24251 5.21194C3.24251 5.26441 3.29873 5.28191 3.37372 5.28191C3.59861 5.28191 3.71111 5.10701 3.71111 5.01954C3.74857 5.03704 3.78604 5.0545 3.84226 5.0545C3.97347 5.0545 4.06721 4.96707 4.06721 4.84464C4.06721 4.80968 4.04845 4.75721 3.99223 4.75721C3.95471 4.75721 3.936 4.79218 3.936 4.82718C3.936 4.8796 3.89854 4.91461 3.84226 4.91461C3.76728 4.91461 3.71111 4.86214 3.67359 4.79218C3.59861 4.66974 3.44865 4.56481 3.26127 4.56481C3.01762 4.56481 2.83019 4.72221 2.79267 4.93211C2.68022 4.82718 2.54902 4.72221 2.36159 4.61728C2.51155 4.52985 2.64276 4.45988 2.79267 4.35495C3.01762 4.19751 3.22375 4.02261 3.44865 3.79525L4.47953 2.74591C5.37921 1.81895 5.9602 1.59154 6.52249 1.59154C7.00979 1.59154 7.25345 1.81895 7.25345 2.08128C7.25345 2.27359 7.16495 2.41631 7.02446 2.48681C6.94467 2.41137 6.88604 2.30832 6.85988 2.18621C6.84112 2.09878 6.82236 2.09878 6.80361 2.09878C6.76614 2.09878 6.76614 2.13374 6.76614 2.16875C6.76614 2.31833 6.80438 2.43893 6.867 2.53237C6.84641 2.5347 6.8253 2.536 6.80361 2.536C6.61618 2.536 6.50373 2.44858 6.50373 2.34365C6.50373 2.32614 6.50373 2.29114 6.54125 2.25617C6.57871 2.22121 6.55995 2.20371 6.54125 2.20371C6.46626 2.20371 6.39128 2.29114 6.39128 2.39611C6.39128 2.51854 6.50373 2.69344 6.82236 2.69344C6.86955 2.69344 6.93221 2.68783 6.99955 2.66894C7.10526 2.74447 7.23555 2.78087 7.36589 2.78087C7.49623 2.78087 7.62657 2.74447 7.73224 2.66894C7.79957 2.68783 7.86224 2.69344 7.90947 2.69344C8.2281 2.69344 8.3405 2.51854 8.3405 2.39611C8.3405 2.29114 8.26557 2.20371 8.19059 2.20371C8.17188 2.20371 8.15307 2.22121 8.19059 2.25617C8.2281 2.29114 8.2281 2.32614 8.2281 2.34365C8.2281 2.44858 8.11561 2.536 7.92818 2.536C7.90649 2.536 7.88542 2.5347 7.86484 2.53237C7.92746 2.43893 7.96565 2.31833 7.96565 2.16875C7.96565 2.13374 7.96565 2.09878 7.92818 2.09878C7.90947 2.09878 7.89071 2.09878 7.87195 2.18621C7.84579 2.30832 7.78716 2.41137 7.70737 2.48681C7.56684 2.41631 7.47839 2.27359 7.47839 2.08128C7.47839 1.81895 7.72204 1.59154 8.20935 1.59154C8.77163 1.59154 9.35263 1.81895 10.2523 2.74591L11.2831 3.79525C11.4893 4.02261 11.7142 4.19751 11.9392 4.35495C12.0891 4.45988 12.2203 4.52985 12.3702 4.61728C12.1828 4.72221 12.0516 4.82718 11.9392 4.93211C11.9016 4.72221 11.7142 4.56481 11.4706 4.56481C11.2831 4.56481 11.1332 4.66974 11.0582 4.79218C11.0207 4.86214 10.9645 4.91461 10.8895 4.91461C10.8333 4.91461 10.7958 4.8796 10.7958 4.82718C10.7958 4.79218 10.7771 4.75721 10.7396 4.75721C10.6834 4.75721 10.6646 4.80968 10.6646 4.84464C10.6646 4.96707 10.7583 5.0545 10.8895 5.0545C10.9457 5.0545 10.9833 5.03704 11.0207 5.01954C11.0207 5.10701 11.1332 5.28191 11.3581 5.28191C11.4331 5.28191 11.4893 5.26441 11.4893 5.21194C11.4893 5.15948 11.4518 5.15948 11.3956 5.15948C11.2644 5.15948 11.1894 5.08951 11.1894 4.96707C11.1894 4.84464 11.3019 4.72221 11.4706 4.72221C11.658 4.72221 11.7892 4.84464 11.7892 5.0545C11.7892 5.15948 11.733 5.2469 11.733 5.38684C11.733 5.5967 11.8454 5.7716 12.0329 5.82406C11.1332 6.19136 10.7021 6.92592 10.7021 7.59055C10.7021 8.20267 10.927 8.6924 11.4706 9.16463L11.9016 9.54939C12.4077 9.98661 12.8575 10.4763 12.8575 11.1934C12.8575 11.928 12.2765 12.4527 11.508 12.4527ZM7.36589 15.7057C7.21598 15.4259 7.04731 15.251 6.97233 15.1636C7.15976 15.0936 7.29096 14.9712 7.36589 14.8313C7.44087 14.9712 7.57208 15.0936 7.75951 15.1636C7.68453 15.251 7.51585 15.4259 7.36589 15.7057ZM7.55544 2.58577C7.49662 2.61023 7.43265 2.62343 7.36589 2.62343C7.29914 2.62343 7.23522 2.61023 7.1764 2.58577C7.2496 2.53407 7.31732 2.45845 7.36589 2.34939C7.41452 2.45845 7.48224 2.53407 7.55544 2.58577ZM13.1574 10.4413C13.045 10.4413 12.9512 10.4938 12.9138 10.5638C12.7638 10.249 12.6138 9.95165 11.9579 9.39195C11.9954 9.40945 12.1266 9.42696 12.2203 9.42696C12.4265 9.42696 12.6514 9.37449 12.7826 9.25206C12.82 9.37449 12.9325 9.44442 13.0637 9.44442C13.2699 9.44442 13.3449 9.32203 13.3449 9.18209C13.3449 9.12962 13.3261 9.07716 13.2699 9.07716C13.1574 9.07716 13.2511 9.28702 13.0637 9.28702C12.9887 9.28702 12.9325 9.23456 12.9325 9.14713C12.9325 9.05966 12.9887 8.95473 12.9887 8.83229C12.9887 8.55247 12.8013 8.36006 12.5764 8.3076C12.4452 8.27264 12.3702 8.18517 12.3702 8.08024C12.3702 7.94034 12.4827 7.92284 12.5577 7.92284C12.6326 7.92284 12.6889 7.94034 12.6889 7.88783C12.6889 7.83537 12.6326 7.80041 12.5202 7.80041C12.389 7.80041 12.2015 7.88783 12.2015 8.08024C12.2015 8.1502 12.2203 8.22017 12.2953 8.29014C12.1266 8.3251 11.9766 8.44754 11.9766 8.63994C11.9766 8.76233 12.0141 8.88476 12.1078 8.88476C12.2203 8.88476 12.1266 8.79733 12.1266 8.6574C12.1266 8.5 12.2765 8.43003 12.4265 8.43003C12.6326 8.43003 12.82 8.60493 12.82 8.83229C12.82 9.09462 12.5951 9.26952 12.239 9.26952C12.0329 9.26952 11.733 9.23455 11.4893 8.97223C11.0957 8.56997 10.8708 8.22017 10.8708 7.59055C10.8708 6.78602 11.4893 6.08643 12.389 5.85907C12.5764 5.8066 12.7263 5.64916 12.7263 5.4393C12.7263 5.26441 12.6138 5.12451 12.4265 5.12451C12.3515 5.12451 12.2953 5.14197 12.2953 5.19444C12.2953 5.2469 12.3515 5.2469 12.389 5.2469C12.4639 5.2469 12.5577 5.31687 12.5577 5.4393C12.5577 5.6142 12.4077 5.71913 12.239 5.71913C12.0329 5.71913 11.9016 5.5792 11.9016 5.38684C11.9016 5.01954 12.3702 4.77472 12.7263 4.61728C12.4077 4.47739 12.2953 4.42492 12.0516 4.25002C11.9954 4.19751 11.9766 4.14505 11.9766 4.07512C11.9766 3.98765 12.0329 3.91768 12.1078 3.91768C12.1641 3.91768 12.2015 3.95269 12.2015 4.00516C12.2015 4.05762 12.1641 4.05762 12.1641 4.09258C12.1641 4.12759 12.1828 4.14505 12.2203 4.14505C12.2577 4.14505 12.3515 4.11009 12.3515 3.97015C12.3515 3.86522 12.2765 3.76029 12.1078 3.76029C11.9392 3.76029 11.808 3.88272 11.808 4.05762C11.6768 3.95269 11.5268 3.83026 11.3956 3.69032L10.7958 3.0782C10.6272 2.9033 10.7209 2.57101 10.9645 2.57101C11.0957 2.57101 11.1519 2.65844 11.1519 2.7284C11.1519 2.8858 10.9833 2.81583 10.9833 2.9033C10.9833 2.93826 11.002 2.97323 11.0582 2.97323C11.1894 2.97323 11.3206 2.8858 11.3206 2.7109C11.3206 2.55351 11.1707 2.41357 10.9645 2.41357C10.7209 2.41357 10.5522 2.58847 10.5522 2.83333L10.3648 2.64093C9.54006 1.80145 8.86532 1.43415 8.20935 1.43415C7.96565 1.43415 7.74075 1.50412 7.60959 1.59154C7.4971 1.46915 7.44087 1.38168 7.36589 1.27675C7.29096 1.38168 7.23474 1.46915 7.12224 1.59154C6.99104 1.50412 6.76614 1.43415 6.52249 1.43415C5.86646 1.43415 5.19178 1.80145 4.36708 2.64093L4.17965 2.83333C4.17965 2.58847 4.01093 2.41357 3.76728 2.41357C3.56114 2.41357 3.41118 2.55351 3.41118 2.7109C3.41118 2.8858 3.54239 2.97323 3.67359 2.97323C3.72982 2.97323 3.74857 2.93826 3.74857 2.9033C3.74857 2.81583 3.5799 2.8858 3.5799 2.7284C3.5799 2.65844 3.63608 2.57101 3.76728 2.57101C4.01093 2.57101 4.10467 2.9033 3.936 3.0782L3.33625 3.69032C3.20504 3.83026 3.05508 3.95269 2.92388 4.05762C2.92388 3.88272 2.79267 3.76029 2.624 3.76029C2.45533 3.76029 2.38035 3.86522 2.38035 3.97015C2.38035 4.11009 2.47404 4.14505 2.51155 4.14505C2.54902 4.14505 2.56778 4.12759 2.56778 4.09258C2.56778 4.05762 2.53026 4.05762 2.53026 4.00516C2.53026 3.95269 2.56778 3.91768 2.624 3.91768C2.69898 3.91768 2.75521 3.98765 2.75521 4.07512C2.75521 4.14505 2.73645 4.19751 2.68022 4.25002C2.45533 4.45988 2.32412 4.47739 2.00549 4.61728C2.36159 4.77472 2.83019 5.01954 2.83019 5.38684C2.83019 5.5792 2.69898 5.71913 2.4928 5.71913C2.32412 5.71913 2.17416 5.6142 2.17416 5.4393C2.17416 5.31687 2.2679 5.2469 2.34283 5.2469C2.38035 5.2469 2.43657 5.2469 2.43657 5.19444C2.43657 5.14197 2.38035 5.12451 2.30537 5.12451C2.11794 5.12451 2.00549 5.26441 2.00549 5.4393C2.00549 5.64916 2.15541 5.8066 2.34283 5.85907C3.24251 6.10389 3.86102 6.78602 3.86102 7.59055C3.86102 8.22017 3.61737 8.55247 3.24251 8.97223C2.99886 9.23455 2.69898 9.26952 2.4928 9.26952C2.1367 9.26952 1.91175 9.09462 1.91175 8.83229C1.91175 8.60493 2.09918 8.43003 2.30537 8.43003C2.45533 8.43003 2.60524 8.5 2.60524 8.6574C2.60524 8.79733 2.51155 8.88476 2.624 8.88476C2.71769 8.88476 2.75521 8.76233 2.75521 8.63994C2.75521 8.44754 2.60524 8.3251 2.43657 8.29014C2.51155 8.22017 2.53026 8.1502 2.53026 8.08024C2.53026 7.88783 2.34283 7.80041 2.21168 7.80041C2.09918 7.80041 2.04296 7.83537 2.04296 7.88783C2.04296 7.94034 2.09918 7.92284 2.17416 7.92284C2.24914 7.92284 2.36159 7.94034 2.36159 8.08024C2.36159 8.18517 2.28661 8.27264 2.15541 8.3076C1.93051 8.36006 1.74308 8.55247 1.74308 8.83229C1.74308 8.95473 1.79935 9.05966 1.79935 9.14713C1.79935 9.23456 1.74308 9.28702 1.6681 9.28702C1.48072 9.28702 1.57441 9.07716 1.46196 9.07716C1.40569 9.07716 1.38698 9.12962 1.38698 9.18209C1.38698 9.32203 1.46196 9.44442 1.6681 9.44442C1.79935 9.44442 1.91175 9.37449 1.94927 9.25206C2.08047 9.37449 2.30537 9.42696 2.51155 9.42696C2.60524 9.42696 2.73645 9.40945 2.77396 9.39195C2.11794 9.95165 1.96798 10.249 1.81806 10.5638C1.78055 10.4938 1.68686 10.4413 1.57441 10.4413C1.38698 10.4413 1.29329 10.5463 1.29329 10.7037C1.29329 10.7387 1.29329 10.8436 1.38698 10.8436C1.46196 10.8436 1.4245 10.7737 1.4245 10.7212C1.4245 10.6512 1.48072 10.5988 1.57441 10.5988C1.72432 10.5988 1.76184 10.7212 1.72432 10.9136C1.70562 11.001 1.70562 11.106 1.70562 11.1934C1.70562 12.0154 2.36159 12.6101 3.22375 12.6101C3.35496 12.6101 3.46741 12.5926 3.59861 12.5751L3.86102 12.9424C3.67359 12.9948 3.54239 13.1522 3.54239 13.3271C3.54239 13.5545 3.72982 13.7294 3.97347 13.7294C4.12343 13.7294 4.23588 13.6594 4.23588 13.5895C4.23588 13.537 4.19836 13.5195 4.1609 13.5195C4.10467 13.5195 4.10467 13.572 3.97347 13.572C3.82351 13.572 3.71111 13.4671 3.71111 13.3271C3.71111 13.1872 3.84226 13.0823 4.02969 13.0823C4.38579 13.0823 4.55451 13.4671 4.79816 13.8518L5.04182 14.2366C5.43543 14.8663 6.07265 15.2335 6.59747 15.2335C6.67245 15.2335 6.74738 15.2335 6.82236 15.2161C7.04731 15.4259 7.2722 15.8107 7.36589 15.9856C7.45963 15.8107 7.68453 15.4259 7.90947 15.2161C7.98445 15.2335 8.05938 15.2335 8.13436 15.2335C8.65914 15.2335 9.2964 14.8663 9.69002 14.2366L9.93367 13.8518C10.1773 13.4671 10.346 13.0823 10.7021 13.0823C10.8895 13.0823 11.0207 13.1872 11.0207 13.3271C11.0207 13.4671 10.9083 13.572 10.7583 13.572C10.6272 13.572 10.6272 13.5195 10.5709 13.5195C10.5334 13.5195 10.496 13.537 10.496 13.5895C10.496 13.6594 10.6084 13.7294 10.7583 13.7294C11.002 13.7294 11.1894 13.5545 11.1894 13.3271C11.1894 13.1522 11.0582 12.9948 10.8708 12.9424L11.1332 12.5751C11.2644 12.5926 11.3769 12.6101 11.508 12.6101C12.3702 12.6101 13.0262 12.0154 13.0262 11.1934C13.0262 11.106 13.0262 11.001 13.0075 10.9136C12.97 10.7212 13.0075 10.5988 13.1574 10.5988C13.2511 10.5988 13.3073 10.6512 13.3073 10.7212C13.3073 10.7737 13.2699 10.8436 13.3449 10.8436C13.4385 10.8436 13.4385 10.7387 13.4385 10.7037C13.4385 10.5463 13.3449 10.4413 13.1574 10.4413ZM12.6701 13.4496C11.8454 14.2366 10.6272 14.7963 9.46507 15.321C8.69665 15.6708 7.94694 16.0206 7.36589 16.4403C6.7849 16.0206 6.03518 15.6708 5.26671 15.321C4.10467 14.7963 2.88641 14.2366 2.06172 13.4496C1.01212 12.4527 0.506062 11.4383 0.506062 10.2839C0.506062 9.30452 0.918434 8.4825 1.85553 7.38069C1.93051 7.29322 2.00549 7.20579 2.00549 7.13578C2.00549 7.06585 1.93051 6.92592 1.89304 6.85599L1.23707 5.52673C1.08711 5.2294 0.937143 4.94962 0.937143 4.65228C0.937143 4.40742 1.10586 4.23252 1.33076 4.05762L2.2679 3.27056C2.30537 3.23559 2.30537 3.18313 2.28661 3.14812L1.98673 2.57101C1.94927 2.50104 1.94927 2.44858 2.00549 2.41357C2.92388 1.83641 3.69235 1.66151 4.79816 1.38168C5.84775 1.11936 6.7849 0.89195 7.36589 0.542198C7.94694 0.89195 8.88408 1.11936 9.93367 1.38168C11.0395 1.66151 11.7892 1.87142 12.7263 2.41357C12.7826 2.44858 12.7826 2.50104 12.7451 2.57101L12.4452 3.14812C12.4265 3.18313 12.4265 3.23559 12.4639 3.27056L13.4011 4.05762C13.626 4.23252 13.7947 4.40742 13.7947 4.65228C13.7947 4.94962 13.6447 5.2294 13.4948 5.52673L12.8388 6.85599C12.8013 6.92592 12.7263 7.06585 12.7263 7.13578C12.7263 7.20579 12.8013 7.29322 12.8763 7.38069C13.8884 8.43003 14.2258 9.30452 14.2258 10.2839C14.2258 11.4383 13.7197 12.4527 12.6701 13.4496ZM13.551 7.43311C13.3823 7.24075 13.2886 7.15328 13.2886 7.08336C13.2886 7.01334 13.3449 6.90846 13.4011 6.78602L13.9634 5.63171C14.132 5.28191 14.282 4.98458 14.282 4.61728C14.282 4.35495 14.1695 4.09258 13.8884 3.86522L13.0824 3.21809C13.0075 3.16563 13.0075 3.0782 13.045 3.00823L13.3449 2.37861C13.3636 2.34365 13.3636 2.29114 13.3073 2.25617C12.389 1.67901 11.3394 1.32922 10.346 1.06685C9.35263 0.822026 8.02192 0.47223 7.36589 0C6.70992 0.47223 5.37921 0.804523 4.38579 1.06685C3.39247 1.32922 2.34283 1.67901 1.4245 2.25617C1.36822 2.29114 1.36822 2.34365 1.38698 2.37861L1.68686 3.00823C1.72432 3.0782 1.72432 3.16563 1.64939 3.21809L0.843453 3.86522C0.562286 4.09258 0.449838 4.35495 0.449838 4.61728C0.449838 4.98458 0.599801 5.28191 0.768472 5.63171L1.33076 6.78602C1.38698 6.90846 1.44321 7.01334 1.44321 7.08336C1.44321 7.15328 1.34947 7.24075 1.1808 7.43311C0.337391 8.41253 0 9.21705 0 10.2839C0 11.7706 0.787229 12.9074 1.68686 13.7644C2.60524 14.6389 3.87978 15.2161 5.04182 15.7407C5.81029 16.0905 6.61618 16.4403 7.36589 17C8.11561 16.4403 8.92155 16.0905 9.69002 15.7407C10.8521 15.2161 12.1453 14.6389 13.045 13.7644C13.9446 12.9074 14.7318 11.7706 14.7318 10.2839C14.7318 9.21705 14.3944 8.41253 13.551 7.43311Z" fill="#555555"/>
</svg>
