<svg width="61" height="13" viewBox="0 0 61 13" fill="none" xmlns="http://www.w3.org/2000/svg">
<path d="M8.09802 4.29183C8.09482 4.8301 7.95495 5.10163 7.78146 5.12186C7.66775 5.13517 7.53643 5.04147 7.41792 4.84607C7.02822 4.20771 6.60169 3.59916 6.14847 3.00179C6.14847 3.00072 6.149 2.99913 6.14954 2.99806C6.32517 2.05569 6.6065 1.09468 7.08801 0.258789C7.69017 1.46843 8.1055 2.94588 8.09802 4.29183ZM5.83831 4.26042C6.26378 4.64056 6.38015 4.94404 6.28513 5.10962C6.22321 5.21823 6.06786 5.26934 5.83992 5.24272C5.07707 5.15328 4.31636 5.11814 3.54658 5.11281C3.54604 5.11175 3.54497 5.11068 3.54391 5.10962C2.81736 4.24711 2.15968 3.27545 1.73742 2.22606C3.1777 2.56627 4.73649 3.27705 5.83831 4.26095M4.38576 6.22822C4.95429 6.10843 5.26498 6.20692 5.33491 6.39433C5.38082 6.51732 5.3237 6.68131 5.16302 6.857C4.63079 7.43627 4.14287 8.04482 3.6747 8.67839H3.67042C2.52429 8.76304 1.33224 8.71566 0.213867 8.43774C1.3536 7.43095 2.89797 6.54181 4.38629 6.22875M5.03597 8.65497C5.28473 8.12734 5.55004 7.92875 5.73262 7.98412C5.85273 8.02033 5.94081 8.16514 5.97284 8.39781C6.07533 9.13201 6.22321 9.85237 6.40364 10.5733C6.40311 10.5743 6.40204 10.5754 6.40097 10.5764C5.77746 11.4592 5.10857 12.3089 4.26938 13C4.17009 11.5737 4.42953 9.94181 5.03597 8.65497ZM7.18891 9.52067C6.9679 9.03777 6.98445 8.71034 7.13392 8.59747C7.23215 8.52346 7.38909 8.5373 7.57166 8.64485C8.12898 8.97282 8.70339 9.27949 9.30555 9.5228C9.30555 9.52387 9.30555 9.52546 9.30608 9.52653C9.52282 10.429 9.6488 11.3761 9.59328 12.3047C8.59075 11.6498 7.6811 10.5956 7.18891 9.52067ZM9.08508 8.33126C8.62651 8.2301 8.40711 8.02512 8.42152 7.83877C8.4306 7.71632 8.53737 7.59866 8.72527 7.5156C9.30181 7.26057 9.87088 6.97999 10.4068 6.64404C10.4079 6.64457 10.409 6.6451 10.4095 6.64563C11.1195 7.00714 11.8017 7.46608 12.3505 8.04695C11.3528 8.43454 10.118 8.55913 9.08508 8.33126ZM9.46089 6.08766C9.09789 6.40445 8.81816 6.45769 8.69591 6.32938C8.61584 6.24526 8.59982 6.08234 8.66015 5.8715C8.85286 5.20332 9.00233 4.52822 9.12671 3.84247C9.12778 3.84247 9.12885 3.84194 9.12992 3.84141C9.8618 3.4996 10.5964 3.18654 11.4088 3.10188C11.025 4.19546 10.3294 5.33057 9.46089 6.0882" fill="#2F2F2F" fill-opacity="0.9"/>
<path d="M8.58819 0.31807C8.0076 1.12864 7.66802 2.06114 7.45602 2.97555C7.45602 2.97659 7.45537 2.97814 7.45473 2.97917C7.3091 2.82728 7.11579 2.6444 6.94825 2.47753C6.31418 1.84416 5.6131 1.25212 4.90364 0.670404C6.06803 0.295856 7.34647 0.1729 8.58819 0.31807ZM0.213867 5.27915C1.299 5.17273 2.38928 5.0756 3.46926 5.04616C3.74827 5.03841 4.06466 5.02704 4.31468 5.02704C4.31339 5.02601 4.31275 5.02446 4.31146 5.02394C3.43446 4.18702 2.64059 3.24419 2.13089 2.22646C1.16303 3.08353 0.502548 4.14776 0.213867 5.27967M2.35191 11.2285C2.86226 10.4825 3.40031 9.74428 3.98863 9.04788C4.14456 8.86293 4.32048 8.6506 4.46804 8.48683C4.46611 8.48683 4.46482 8.48683 4.46289 8.48683C3.08005 8.56897 1.64116 8.52351 0.291192 8.25332C0.636578 9.36921 1.3441 10.4081 2.35191 11.2285ZM8.86527 12.9117C8.53664 12.2478 8.22154 11.5798 7.97087 10.9056C7.90128 10.7186 7.81944 10.5011 7.7621 10.325C7.76145 10.326 7.76016 10.327 7.75952 10.3281C7.00689 11.1841 6.19948 12.0086 5.18652 12.6797C6.40955 12.9669 7.59713 13.1018 8.86527 12.9117ZM13.9423 10.0114C13.2367 9.86826 12.5337 9.70553 11.859 9.49217C11.667 9.43121 11.4434 9.36715 11.2656 9.30619C11.2656 9.30722 11.2656 9.30877 11.2662 9.3098C11.5278 10.1855 11.6799 11.104 11.6129 12.0055C12.5633 11.491 13.3604 10.8039 13.9423 10.0119M14.8883 5.18771C14.3218 5.56122 13.7393 5.92286 13.124 6.23903C12.9519 6.32737 12.7567 6.43431 12.5936 6.51335C12.5949 6.51335 12.5956 6.51438 12.5969 6.5149C13.4539 6.86568 14.2774 7.31049 14.9398 7.87412C15.097 6.94266 15.0841 6.11452 14.8883 5.18771ZM11.3861 1.14363C11.3345 1.84158 11.2714 2.54108 11.1534 3.22353C11.1212 3.40848 11.0851 3.62442 11.0491 3.79491C11.0503 3.79491 11.0516 3.79387 11.0529 3.79387C11.9364 3.46221 12.823 3.15844 13.8038 3.07629C13.1877 2.29878 12.3623 1.63131 11.3867 1.14414" fill="#555555" fill-opacity="0.9"/>
<path d="M57.2192 1.43052L55.777 11.6695H53.9424V10.5249C53.0332 11.3987 52.0888 11.8409 51.132 11.8409C50.4599 11.8409 49.9633 11.6459 49.6137 11.2447C49.0738 10.6255 48.9151 9.53125 49.1294 7.90042C49.5519 4.84309 50.6866 4.22889 52.3809 4.22889C53.0511 4.22889 53.8177 4.28975 54.5002 4.39098L54.9171 1.43052H57.2192ZM53.2617 5.91561C51.9837 5.91561 51.7107 6.07894 51.4581 7.95569C51.3284 8.91767 51.2907 9.51759 51.4803 9.73557C51.5588 9.82624 51.6916 9.8635 51.8942 9.85481C52.5922 9.84114 53.1475 9.47039 53.8634 8.83383L54.2679 5.91561H53.2611H53.2617ZM32.5316 4.22889C31.2296 4.22889 30.3382 4.5009 29.7267 5.08467C29.1226 5.66161 28.7662 6.54285 28.5698 7.94203C28.3734 9.33252 28.5414 10.3137 29.0831 10.9416C29.6057 11.5465 30.492 11.8409 31.7929 11.8409C32.4322 11.8409 33.3723 11.7825 34.2179 11.503L34.2772 11.4838L34.5156 9.77345L34.3631 9.79891C33.775 9.88337 33.0338 9.92623 32.1616 9.92623C31.5582 9.92623 31.258 9.8517 31.09 9.66042C30.8824 9.42381 30.8429 8.96239 30.9547 8.06872C31.1554 6.41181 31.6675 6.14477 32.8151 6.14477C33.2803 6.14477 35.0166 6.17458 35.0166 6.17458L35.242 4.55182C35.242 4.55182 34.2692 4.22951 32.531 4.22951M48.1455 5.03374C48.4951 5.43928 48.6124 6.00752 48.5043 6.77201C48.2807 8.31341 47.2053 8.69596 45.5432 8.81458L43.5672 8.96425C43.6203 9.79953 44.0533 9.95541 44.8686 9.95541C45.5716 9.95541 47.2653 9.8722 47.542 9.8014L47.6532 9.77283L47.6661 9.88772C47.7347 10.4926 47.9348 11.1608 47.9367 11.1677L47.9626 11.2546L47.8792 11.29C46.9805 11.6695 45.5635 11.8421 44.6271 11.8421C43.2997 11.8421 42.3868 11.5397 41.8364 10.9168C41.2756 10.2821 41.0822 9.29153 41.2465 7.88862C41.5764 5.15298 42.6264 4.23013 45.4079 4.23013C46.7828 4.23013 47.6779 4.49345 48.1448 5.03436M45.2139 7.37192C45.8847 7.31789 46.196 7.18624 46.2745 6.54658C46.2936 6.32363 46.2708 6.18762 46.1998 6.10999C46.0954 5.9951 45.8477 5.97212 45.4832 5.97212C45.4159 5.97212 45.3436 5.97274 45.2677 5.97398C44.1898 5.97398 43.9236 6.3435 43.7123 7.51601L45.2145 7.37192H45.2139ZM41.501 4.43072H41.0569C40.2138 4.43072 39.3885 4.85054 38.3249 5.82742V4.43072H36.504L35.4959 11.6713H37.8011L38.3595 7.50669C38.6498 7.13469 39.4571 6.69686 40.0575 6.69686H40.5492L40.5665 6.61737C40.5683 6.60806 40.7765 5.67713 41.4121 4.58225L41.5004 4.43072H41.501ZM17.3076 4.10282C17.1149 5.59702 17.6343 6.48013 19.0451 7.05706L20.908 7.8023C21.4998 8.01966 21.6301 8.13083 21.5541 8.71894C21.4393 9.47784 21.1452 9.68092 19.8432 9.68092H16.6781L16.3965 11.6695H19.9352C22.6919 11.6695 23.6178 11.0161 23.8976 8.87296C24.07 7.52035 23.8371 6.54968 22.144 5.88952L20.383 5.2157C19.7005 4.95922 19.5751 4.85675 19.6653 4.25621C19.7697 3.58674 20.0149 3.44204 20.5257 3.40602H24.3022L24.5839 1.41748H21.2132C18.9191 1.41748 17.617 1.84537 17.3082 4.1022M24.6012 11.6707H26.8909L27.899 4.4301H25.6092L24.6012 11.6707ZM28.0417 3.40602L28.3184 1.41748H26.0287L25.7519 3.40602H28.0417ZM57.1803 11.6707H59.4701L60.4781 4.4301H58.1884L57.1803 11.6707ZM60.6208 3.40602L60.8975 1.41748H58.6078L58.3311 3.40602H60.6208Z" fill="#555555" fill-opacity="0.9"/>
</svg>
